<?xml version="1.0" standalone="no"?>
<!DOCTYPE svg PUBLIC "-//W3C//DTD SVG 1.1//EN" "http://www.w3.org/Graphics/SVG/1.1/DTD/svg11.dtd" >
<svg>
<metadata>
Created by FontForge 20110222 at Wed Sep  5 03:34:14 2012
 By Stefan Warting
(C) Copyright Menksoft Co.,Ltd Jan 2006
</metadata>
<defs>
<font id="Menksoft2007" horiz-adv-x="800" >
  <font-face 
    font-family="Menksoft2007"
    font-weight="400"
    font-stretch="normal"
    units-per-em="2048"
    panose-1="2 0 6 2 0 0 0 0 0 0"
    ascent="1638"
    descent="-410"
    bbox="-239.738 -441.321 3352 1912"
    underline-thickness="100"
    underline-position="-150"
    unicode-range="U+000D-E34F"
  />
<missing-glyph horiz-adv-x="1593" 
d="M284 0v1280h1024v-1280h-1024zM316 32h960v1216h-960v-1216z" />
    <glyph glyph-name=".notdef" horiz-adv-x="1593" 
d="M284 0v1280h1024v-1280h-1024zM316 32h960v1216h-960v-1216z" />
    <glyph glyph-name="NULL" horiz-adv-x="0" 
 />
    <glyph glyph-name="nonmarkingreturn" unicode="&#xd;" horiz-adv-x="682" 
 />
    <glyph glyph-name="space" unicode=" " horiz-adv-x="559" 
 />
    <glyph glyph-name="Mongolian_BIRGA" unicode="&#x1800;" horiz-adv-x="848" 
d="M656 1280q16 -16 32 -64q16 -56 8 -120q0 -64 -48 -176l-32 -96q-80 -120 -144 -240l-80 -128q-56 -96 -64 -128l-24 -96q-32 -40 -56 -40q-40 0 -48 72q0 48 16 96q88 176 152 288q24 40 56 72q48 88 80 152l32 80q40 88 40 152q0 32 -8 56q-24 56 -72 72q-16 8 -40 8
q-16 8 -32 8q-72 0 -120 -64q-16 -48 -16 -104q0 -72 24 -88l24 -24q32 -40 32 -64t-48 -32q-88 40 -104 64q-24 16 -40 68t-16 92q0 16 8 32q8 136 104 224q72 64 184 64q152 -16 200 -136z" />
    <glyph glyph-name="Mongolian_ELLIPSIS" unicode="&#x1801;" horiz-adv-x="2576" 
d="M240 968q0 48 36 84t84 36t84 -36t36 -84q0 -56 -36 -92t-84 -36t-84 36t-36 92zM872 968q0 48 36 84t84 36t84 -36t36 -84q0 -56 -36 -92t-84 -36t-84 36t-36 92zM1504 968q0 48 36 84t84 36t84 -36t36 -84q0 -56 -36 -92t-84 -36t-84 36t-36 92zM2136 968q0 48 32 84
t88 36q48 0 84 -36t36 -84q0 -56 -36 -92t-84 -36q-56 0 -88 36t-32 92z" />
    <glyph glyph-name="Mongolian_COMMA" unicode="&#x1802;" 
d="M280 968l120 224l120 -224l-120 -232z" />
    <glyph glyph-name="Mongolian_FULL_STOP" unicode="&#x1803;" horiz-adv-x="1120" 
d="M240 968l136 248l128 -248l-128 -256zM640 968l128 248l136 -248l-136 -256z" />
    <glyph glyph-name="Mongolian_COLON" unicode="&#x1804;" 
d="M296 1200q0 40 28 72t76 32q40 0 72 -32t32 -72q0 -48 -32 -80t-72 -32q-48 0 -76 32t-28 80zM296 728q0 48 28 80t76 32q40 0 72 -32t32 -80q0 -40 -32 -72t-72 -32q-48 0 -76 32t-28 72z" />
    <glyph glyph-name="Mongolian_FOUR_DOTS" unicode="&#x1805;" horiz-adv-x="1064" 
d="M568 1560l120 -216l-120 -224l-112 224zM568 824l112 -224l-112 -224l-112 224zM776 1192l112 -224l-112 -216l-112 216zM352 1192l112 -224l-112 -224l-112 224z" />
    <glyph glyph-name="Mongolian_TODO_SOFT_HYPHEN" unicode="&#x1806;" horiz-adv-x="1024" 
d="M240 872v192h576v-192h-576z" />
    <glyph glyph-name="Mongolian_SIBE_SYLLABLE_BOUNDARY_MARKER" unicode="&#x1807;" horiz-adv-x="976" 
d="M240 1096h480v-192h-128l-40 -264q-8 -24 -24 -24t-24 16l-40 272h-224v192z" />
    <glyph glyph-name="Mongolian_MANCHU_COMMA" unicode="&#x1808;" 
d="M328 1192q216 -72 232 -224q-16 -160 -232 -232l8 32q64 88 80 200q-16 112 -96 208z" />
    <glyph glyph-name="Mongolian_MANCHU_FULL_STOP" unicode="&#x1809;" horiz-adv-x="1200" 
d="M680 1200q216 -72 232 -232q-16 -152 -232 -224l8 32q64 88 80 192q-16 120 -96 216zM328 1192q216 -72 232 -224q-16 -160 -232 -232l8 32q64 88 80 200q-16 112 -96 208z" />
    <glyph glyph-name="Mongolian_NIRUGU" unicode="&#x180a;" horiz-adv-x="400" 
d="M0 856v224h400v-224h-400z" />
    <glyph glyph-name="Mongolian_FREE_VARIATION_SELECTOR_ONE" unicode="&#x180b;" horiz-adv-x="2800" 
d="M536 288h304v144q0 64 -24 88t-80 24v16h272v-16q-48 0 -72 -16t-36 -32t-12 -64v-144h264q64 0 72 16q24 0 40 16q8 32 8 48v32h24v-336h-24v16q0 48 -32 80h-88h-528h-80q-8 0 -24 -16q-8 -32 -8 -64v-16h-32v592l184 16v-32q-64 0 -88 -24t-32 -56t-8 -96v-176z
M512 1568h24q8 -48 16 -64q40 -32 96 -48l696 -288v-32l-704 -304q-48 -16 -64 -32q-24 -16 -32 -32t-8 -64h-24v336h24q8 -64 20 -80t36 -16t80 32l480 208l-464 192q-72 32 -96 32q-16 0 -32 -24t-24 -56v-16h-24v256zM1440 624h280v-32q-72 0 -120 -32t-80 -80t-32 -112
t36 -96t84 -32q40 0 72 16q48 48 120 176q64 112 92 152t72 64t92 24q96 0 160 -72t64 -184q0 -32 -8 -48q0 -32 -20 -88t-20 -72t8 -24t40 -24v0h-272v0q80 32 124 56t72 80t28 104q0 80 -40 120t-88 40q-24 0 -56 -8t-64 -56q-16 -16 -76 -120t-88 -144t-72 -64t-92 -24
q-80 0 -148 64t-68 160q0 80 40 144l8 32q0 32 -4 40t-44 8v32zM1552 944l-96 192v32h672h76t32 24t12 72h24v-304h-24q0 64 -12 80t-24 24t-84 8h-440h-104q-24 -16 -28 -32l-4 -16q0 -32 8 -64zM640 1760v-128h-272v-272h-128v400h400zM1608 1760v-128h-384v128h384z
M360 960v-384h-120v384h120zM2544 1760v-400h-120v272h-272v128h392zM360 224v-256h280v-128h-400v384h120zM1608 -32v-128h-384v128h384zM2544 960v-384h-120v384h120zM2544 224v-384h-392v128h272v256h120z" />
    <glyph glyph-name="Mongolian_FREE_VARIATION_SELECTOR_TWO" unicode="&#x180c;" horiz-adv-x="2800" 
d="M528 288h312v144q0 64 -24 88t-80 24v16h272v-16q-48 0 -72 -16t-36 -32t-12 -64v-144h264q64 0 72 16q24 0 40 16q8 32 8 48v32h24v-336h-24v16q0 48 -32 80h-88h-528h-80q-16 0 -24 -16q-16 -32 -16 -64v-16h-24v592l184 16v-32q-64 0 -88 -24t-36 -56t-12 -96v-176z
M504 1568h24q16 -48 24 -64q40 -32 96 -48l696 -288v-32l-704 -304q-48 -16 -64 -32q-24 -16 -36 -32t-12 -64h-24v336h24q16 -64 28 -80t36 -16t80 32l480 208l-464 192q-72 32 -96 32q-16 0 -32 -24t-32 -56v-16h-24v256zM1440 624h280v-32q-72 0 -120 -32t-80 -80
t-32 -112t36 -96t84 -32q40 0 72 16q48 48 120 176q56 112 88 152t76 64t92 24q96 0 160 -72t64 -184q0 -32 -8 -48q0 -32 -20 -88t-20 -72t8 -24t40 -24v0h-272v0q80 32 124 56t72 80t28 104q0 80 -40 120t-88 40q-24 0 -56 -8t-64 -56q-16 -16 -76 -120t-88 -144t-72 -64
t-92 -24q-80 0 -148 64t-68 160q0 80 40 144l8 32q0 32 -4 40t-44 8v32zM640 1760v-128h-272v-272h-128v400h400zM1608 1760v-128h-384v128h384zM360 960v-384h-120v384h120zM2544 1760v-400h-120v272h-272v128h392zM360 224v-256h280v-128h-400v384h120zM1608 -32v-128
h-384v128h384zM2544 960v-384h-120v384h120zM2544 224v-384h-392v128h272v256h120zM2128 1376l152 -48v-480h-24q-192 224 -312 304t-216 80q-80 0 -128 -48t-48 -112q0 -48 36 -96t92 -80v-16q-104 16 -160 80t-56 144q0 96 60 160t148 64q56 0 120 -16q96 -48 200 -144
q160 -144 192 -192v208q0 80 -4 104t-16 40t-36 32v16z" />
    <glyph glyph-name="Mongolian_FREE_VARIATION_SELECTOR_THREE" unicode="&#x180d;" horiz-adv-x="2800" 
d="M536 288h304v144q0 64 -24 88t-80 24v16h272v-16q-48 0 -72 -16t-36 -32t-12 -64v-144h264q64 0 72 16q24 0 40 16q8 32 8 48v48h24v-352h-24v16q0 48 -32 80q-16 16 -88 16h-528h-80q-8 -16 -24 -32q-8 -16 -8 -64v-16h-32v592l184 16v-16q-64 -16 -88 -40t-32 -56
t-8 -96v-176zM512 1568h24q8 -48 16 -64q40 -32 96 -48l696 -288v-32l-704 -304q-48 -16 -64 -32q-24 0 -32 -24t-8 -72h-24v336h24q8 -64 20 -80t36 -16t80 32l480 208l-464 192q-72 32 -96 32q-16 0 -32 -24t-24 -56v0h-24v240zM1440 624h280v-32q-72 0 -120 -32t-80 -80
t-32 -112t40 -96t80 -32t72 32q48 32 120 160q64 128 92 160t72 56t92 24q96 0 160 -72t64 -184q0 -32 -8 -48q0 -32 -20 -88t-20 -72t8 -24t40 -8v-16h-272v16q80 16 124 40t72 80t28 120t-40 104t-88 40q-24 0 -56 -8t-64 -56q-16 -16 -76 -120t-88 -144t-72 -64t-92 -24
q-80 0 -148 64t-68 160q0 80 40 144q8 32 8 48t-4 24t-44 8v32zM640 1760v-128h-280v-272h-120v400h400zM1608 1760v-128h-384v128h384zM360 960v-384h-120v384h120zM2544 1760v-400h-120v272h-272v128h392zM360 224v-256h280v-128h-400v384h120zM1616 -32v-128h-392v128
h392zM2544 960v-384h-120v384h120zM2544 224v-384h-392v128h272v256h120zM1648 944q-80 32 -124 88t-44 136q0 96 64 160q40 32 104 32q80 0 176 -112q24 80 80 112t144 32t176 -64q96 -96 96 -256q0 -80 -20 -104t-44 -24t-36 8t-12 24t16 32q0 16 16 48t16 48q16 32 16 48
q0 64 -48 112t-112 48q-40 0 -96 -32q-32 0 -48 -32q-24 -16 -48 -64t-24 -96v-16h-8q-16 48 -40 96t-64 72t-96 24t-88 -40t-32 -104q0 -80 88 -160z" />
    <glyph glyph-name="Mongolian_VOWEL_SEPARATOR" unicode="&#x180e;" horiz-adv-x="2800" 
d="M1512 864h32q8 -48 24 -64q32 -32 88 -48l696 -304v-16l-704 -304q-48 -16 -64 -32t-28 -40t-12 -56h-32v336h32q8 -64 20 -80t36 -16t80 32l480 208l-472 192q-64 32 -88 32q-16 0 -32 -24t-24 -56v-16h-32v256zM1480 1440h272v-16q-72 -16 -120 -48t-76 -80t-28 -112
q0 -48 36 -88t84 -40q32 0 72 16q48 48 120 176q56 112 88 152t76 64t84 24q96 0 164 -72t68 -184q0 -32 -16 -48q0 -32 -16 -88t-16 -72t4 -24t44 -24v0h-272v0q80 32 120 56t72 80t32 120t-44 104t-92 40q-24 0 -52 -8t-68 -40q-8 -32 -68 -136t-92 -144t-72 -64t-96 -24
q-80 0 -144 64t-64 160q0 80 32 144l16 32q0 32 -8 40t-40 24v16zM640 1760v-128h-272v-272h-128v400h400zM1608 1760v-128h-384v128h384zM360 960v-384h-120v384h120zM2544 1760v-400h-120v272h-272v128h392zM360 224v-256h280v-128h-400v384h120zM1608 -32v-128h-384v128
h384zM2544 944v-384h-120v384h120zM2544 224v-384h-392v128h272v256h120zM1408 704l-688 -320h544q72 0 96 32q24 16 24 64v16h24v-272h-24v32q0 48 -40 64q-8 16 -80 16h-528q-64 0 -88 -16q-8 -16 -20 -32t-12 -64h-24v224l632 304l-632 288v240h24v-48q0 -48 32 -64
q16 -16 88 -16h528q72 0 96 16t24 64v48h24v-352h-24v16q0 64 -40 80q-8 16 -80 16h-544l688 -320v-16z" />
    <glyph glyph-name="_This_position_shall_not_be_used_.001" unicode="&#x180f;" horiz-adv-x="2000" 
 />
    <glyph glyph-name="Mongolian_DIGIT_ZERO" unicode="&#x1810;" horiz-adv-x="1200" 
d="M672 1528q360 -32 360 -592q0 -88 -8 -176q-48 -720 -448 -680q-368 24 -368 608v160q56 712 464 680zM672 1408q-272 32 -328 -576q-8 -88 -8 -168q0 -456 240 -472q280 -16 328 584q8 96 8 176q0 432 -240 456z" />
    <glyph glyph-name="Mongolian_DIGIT_ONE" unicode="&#x1811;" horiz-adv-x="1200" 
d="M616 1584q176 0 280 -208q96 -208 96 -528q0 -336 -120 -608q-128 -288 -312 -288q-208 -16 -320 240l-8 16q0 48 56 48t64 -16q48 -96 112 -144q48 -32 96 -32q112 16 208 272q88 256 88 512t-56 432q-72 192 -184 192q-104 0 -160 -176q-56 -160 -56 -432t24 -416
q-16 -64 -56 -64q-24 0 -64 32q-8 48 -24 208q-24 176 -24 240q-8 368 112 560q104 160 248 160z" />
    <glyph glyph-name="Mongolian_DIGIT_TWO" unicode="&#x1812;" horiz-adv-x="1424" 
d="M760 1472q96 32 176 32q120 0 200 -64t96 -176v-32q0 -144 -96 -304q-216 -320 -288 -496v-16q0 -16 28 -32t68 -16t80 16l112 160q8 -16 32 -16l-136 -288q-16 -16 -48 -32h-48q-40 16 -152 48q-24 0 -72 -16q-40 -16 -40 0q248 512 328 736q56 160 56 240t-32 128
q-40 64 -112 64q-48 0 -152 -32q-96 -48 -200 -176q-160 -208 -168 -480q-8 -192 24 -416q-16 -80 -80 -80q-48 0 -80 48q-8 48 -16 208q-16 160 -8 240q24 336 248 560q144 144 280 192z" />
    <glyph glyph-name="Mongolian_DIGIT_THREE" unicode="&#x1813;" horiz-adv-x="1424" 
d="M592 1456q64 24 152 8q24 8 68 -16t52 -48h8q56 40 168 24q88 -24 144 -100t56 -164q0 -112 -128 -296q-136 -208 -240 -472v-24q0 -40 48 -40q24 0 48 16q80 88 80 80q8 0 24 -8l-80 -200q-32 -32 -96 -24q-24 16 -72 16h-64q-56 -32 -64 0q256 520 368 784
q56 136 48 176q-8 56 -44 92t-84 36q-8 0 -20 -4t-40 -16t-44 -36q-64 -104 -240 -616q-16 -24 -40 -24q-32 0 -24 40q200 472 200 592q0 32 -16 48q-32 80 -96 80q-32 0 -72 -16q-72 -24 -136 -176q-88 -192 -80 -472q0 -72 24 -216q24 -96 40 -192q-24 -88 -88 -88
q-48 0 -72 48q-24 32 -44 188t-20 244q16 344 160 568q96 152 216 208z" />
    <glyph glyph-name="Mongolian_DIGIT_FOUR" unicode="&#x1814;" horiz-adv-x="1200" 
d="M336 688q-8 -64 -8 -112q0 -208 52 -344t140 -152q104 -16 200 176t104 464l8 64t8 112q0 128 -32 224q-8 96 -64 224l-48 128q-8 16 -8 32q0 80 56 80q48 0 72 -48q72 -80 128 -336q40 -208 40 -384q0 16 -8 -160q-16 -368 -176 -544q-128 -144 -280 -128
q-144 16 -220 160t-76 368q0 80 8 176q24 192 144 384q96 160 176 192q40 16 64 16q48 0 -16 -80q-72 -32 -152 -160q-96 -160 -112 -352z" />
    <glyph glyph-name="Mongolian_DIGIT_FIVE" unicode="&#x1815;" horiz-adv-x="1200" 
d="M512 416q24 0 56 32q72 64 72 224q16 192 24 416q24 80 48 192q16 64 40 64q32 0 64 -96l256 -880q8 -80 -32 -80q-24 0 -72 32q-104 400 -200 800l-32 -48l-8 -352q0 -208 -56 -304q-56 -112 -152 -112q-176 16 -248 224q-64 224 -64 288q0 32 4 48t20 32q24 32 48 32
q16 0 32 -48q-8 -32 72 -336q48 -128 128 -128z" />
    <glyph glyph-name="Mongolian_DIGIT_SIX" unicode="&#x1816;" horiz-adv-x="1400" 
d="M192 720q16 208 72 368q112 320 376 448q120 48 152 48q48 16 168 16q72 -16 72 -64t-80 -48q-128 -16 -256 -80q-192 -80 -296 -368q-64 -192 -64 -336q16 -544 344 -560q128 0 256 96q128 112 128 272q0 112 -72 224l-32 32q-48 48 -112 64q-72 0 -112 -16
q-48 -32 -72 -144q-8 -16 -24 -16q-24 0 -40 16q8 160 56 592q24 64 64 64t48 -64l-32 -368q24 32 104 32q200 0 288 -176q80 -128 80 -256q0 -192 -144 -336t-336 -144q-288 0 -424 224q-120 192 -112 480z" />
    <glyph glyph-name="Mongolian_DIGIT_SEVEN" unicode="&#x1817;" horiz-adv-x="1312" 
d="M760 632q-16 -136 -16 -232q0 -280 96 -288q64 0 108 120t44 328v104q-8 144 -8 184q-16 136 -56 232q-16 72 -88 156t-112 100q-40 32 -144 32q-96 0 -136 -32q-24 -8 -40 -8q-64 0 -64 64q0 72 80 80q72 24 160 24q176 0 296 -92t176 -252q72 -192 80 -520
q0 -384 -112 -544q-72 -104 -184 -96q-216 24 -216 392q0 120 24 272q16 104 16 184q0 160 -80 216q-16 8 -40 8q-72 0 -112 -48q-88 -104 -88 -416q0 -184 40 -264q0 -16 72 -192q16 -16 16 -48t-20 -56t-52 -24q-40 0 -88 72q-24 64 -72 232q-32 120 -32 280
q0 336 112 472q64 104 200 104q72 0 136 -32q120 -72 120 -296q0 -64 -16 -216z" />
    <glyph glyph-name="Mongolian_DIGIT_EIGHT" unicode="&#x1818;" horiz-adv-x="1200" 
d="M792 256q-8 -160 -24 -176q-72 16 -120 16q-32 32 -272 16q-72 -16 -96 -16t-104 16q16 16 304 992q32 112 88 448q112 0 224 -32l-192 -416q-64 -160 -152 -424t-128 -440q240 -32 352 -32q48 96 112 272q24 48 96 272q16 16 40 16q16 0 32 -32l-80 -216t-80 -264z" />
    <glyph glyph-name="Mongolian_DIGIT_NINE" unicode="&#x1819;" horiz-adv-x="1200" 
d="M736 416q96 336 96 624q0 368 -184 368q-96 0 -184 -208q-88 -224 -72 -464q16 -304 88 -480q88 -224 200 -208q104 16 152 144q24 32 56 32q24 0 40 -16t16 -48q-8 -48 -56 -128q-72 -96 -184 -96q-72 0 -144 32q-112 48 -168 176q-120 256 -136 640q0 384 144 592
q112 176 256 160q296 -32 296 -464q0 -256 -104 -560l80 -16q32 -16 32 -48q0 -48 -48 -80l-152 32z" />
    <glyph glyph-name="_This_position_shall_not_be_used_.009" unicode="&#x181a;" horiz-adv-x="2000" 
 />
    <glyph glyph-name="_This_position_shall_not_be_used_.008" unicode="&#x181b;" horiz-adv-x="2000" 
 />
    <glyph glyph-name="_This_position_shall_not_be_used_.010" unicode="&#x181c;" horiz-adv-x="2000" 
 />
    <glyph glyph-name="_This_position_shall_not_be_used_.005" unicode="&#x181d;" horiz-adv-x="2000" 
 />
    <glyph glyph-name="_This_position_shall_not_be_used_.006" unicode="&#x181e;" horiz-adv-x="2000" 
 />
    <glyph glyph-name="_This_position_shall_not_be_used_.011" unicode="&#x181f;" horiz-adv-x="2000" 
 />
    <glyph glyph-name="Mongolian_LETTER_A" unicode="&#x1820;" horiz-adv-x="2048" 
d="M1056 980q-16 -24 -24 -128q-8 -184 88 -296q32 -48 72 -64q-16 24 0 200q16 280 296 728q48 96 72 176q0 88 -8 128q0 32 16 32q24 0 32 -24l152 -360q24 -40 0 -64q-136 -136 -240 -272q-128 -168 -168 -304t-48 -376q0 -136 -8 -136q-112 72 -224 232
q-96 144 -128 304h-216q-8 -88 -56 -368q-8 -16 -24 -16q-8 0 -16 16l-72 360q-8 96 16 232q16 160 -56 152q-24 0 -104 -32q-120 -72 -128 -56q-8 8 0 24q72 128 184 200q72 40 120 48q72 8 108 -32t20 -120l-8 -184h352z" />
    <glyph glyph-name="Mongolian_LETTER_E" unicode="&#x1821;" horiz-adv-x="1760" 
d="M720 756q-8 -88 -56 -368q-8 -16 -24 -16q-8 0 -16 16l-72 360q-8 96 16 296q0 88 -56 88q-24 0 -184 -80q-40 -24 -48 -8q-8 8 0 24q96 152 288 240q88 32 124 -16t28 -128l-8 -184h440q184 16 272 -112q16 -72 40 -256q16 -168 0 -424q-8 -152 -64 -236t-176 -148
q-24 -8 -96 -120q-16 -24 -40 -32h-8l24 296q0 32 68 32t172 112q48 40 48 264q8 328 -56 360q-72 40 -176 40h-440z" />
    <glyph glyph-name="Mongolian_LETTER_I" unicode="&#x1822;" horiz-adv-x="1688" 
d="M712 980h192q24 88 56 200q96 232 200 248q24 16 72 16q88 -24 152 -168q24 -48 8 -184v-80q-8 -48 -32 -48q-16 0 -36 84t-20 108q-24 112 -120 112q-72 0 -120 -88q-88 -88 -88 -288q-8 -104 128 -272q80 -88 104 -112q24 -128 24 -208q0 -72 -24 -72q0 16 -160 264
q-104 168 -128 264h-208q-8 -88 -48 -368q-16 -16 -32 -16t-24 16q-64 352 -64 360q-8 72 16 232v64q0 88 -56 88q-24 0 -80 -32l-104 -48q-40 -24 -48 -8q-8 8 0 24q72 136 304 248q72 8 108 -32t28 -120v-184z" />
    <glyph glyph-name="Mongolian_LETTER_O" unicode="&#x1823;" horiz-adv-x="1656" 
d="M1360 980v-224q0 -280 -72 -400q-72 -72 -144 -72q-136 -16 -196 112t-52 360h-184q-8 -88 -48 -368q-8 -16 -16 -16q-16 0 -32 16q-40 208 -56 360v296q0 88 -56 88q-24 0 -80 -32l-104 -48q-40 -24 -48 -8q-8 8 0 24q72 136 304 248q72 8 108 -32t28 -120l-8 -184h656z
M968 756q0 -152 8 -192q40 -144 152 -136q192 0 160 328h-320z" />
    <glyph glyph-name="Mongolian_LETTER_U" unicode="&#x1824;" horiz-adv-x="1832" 
d="M664 980h888v-224h-232q0 -280 -72 -400q-72 -72 -144 -72q-248 -16 -248 472h-184q-8 -88 -56 -368q-8 -16 -24 -16t-24 16q-32 128 -64 360q-8 56 0 136q0 88 16 96v64q0 88 -56 88q-24 0 -80 -32l-104 -48q-40 -24 -48 -8q-8 8 0 24q72 136 304 248q72 8 108 -32
t28 -120zM928 756q0 -152 8 -192q40 -144 152 -136q192 -8 160 328h-320z" />
    <glyph glyph-name="Mongolian_LETTER_OE" unicode="&#x1825;" horiz-adv-x="2088" 
d="M1264 356q-72 -72 -144 -72q-136 -16 -192 92t-56 380h-184q-8 -88 -48 -368q-16 -16 -32 -16t-16 16l-72 360q-8 72 16 232v64q0 88 -56 88q-24 0 -80 -32l-104 -48q-40 -24 -48 -8q-8 8 0 24q72 136 304 248q72 8 108 -32t28 -120l-8 -184h840q152 -8 208 -100t56 -268
l-16 -88q-8 -72 -32 -80l-16 24l-8 40q0 200 -176 248h-200q0 -280 -72 -400zM936 756q0 -152 8 -192q40 -144 152 -136q184 8 160 328h-320z" />
    <glyph glyph-name="Mongolian_LETTER_UE" unicode="&#x1826;" horiz-adv-x="2360" 
d="M1344 756q0 -296 -72 -424q-72 -80 -152 -80q-144 -8 -200 112t-56 392h-200q-8 -96 -48 -392q-16 -24 -32 -24q-8 0 -16 24l-72 376q-16 72 8 248v64q0 88 -48 88q-32 0 -96 -32l-104 -48q-40 -24 -48 -8q-8 8 0 32q72 144 320 256q72 8 112 -32t24 -128v-200h1448v-224
h-480q184 -280 288 -424l-56 -248q-8 -16 -16 -16q-16 0 -16 8q-16 80 -128 328q-32 80 -152 352h-208zM936 756q0 -168 8 -208q40 -152 168 -144q192 8 160 352h-336z" />
    <glyph glyph-name="Mongolian_LETTER_EE" unicode="&#x1827;" horiz-adv-x="1984" 
d="M944 756q8 -168 120 -384q56 -104 120 -128q32 -16 72 0l48 40q8 8 24 72q24 16 48 0q16 -16 24 -88q24 -48 0 -88q-8 -48 -44 -96t-84 -48q-24 0 -72 8q-136 40 -240 312q-80 200 -112 400h-184q-8 -96 -48 -392q-24 -24 -32 -24q-24 0 -32 24q-48 264 -64 376
q-8 88 16 248v64q0 88 -56 88q-32 0 -88 -32l-104 -48q-40 -24 -48 -8q-16 8 0 32q72 144 312 256q72 8 112 -32t32 -128v-200h800q168 0 224 -100t56 -284l-16 -88q-8 -72 -48 -64l-8 40q0 216 -184 272h-544z" />
    <glyph glyph-name="Mongolian_LETTER_NA" unicode="&#x1828;" horiz-adv-x="1536" 
d="M536 988v64q0 88 -56 88q-32 0 -88 -32l-104 -48q-40 -24 -56 -8q-8 8 0 32q72 144 320 256q72 8 112 -32t32 -128v-200h552v-224h-552q-8 -104 -48 -416q-24 -16 -40 -16t-24 16q-64 376 -64 392q-8 72 16 256zM728 76v-72q-56 -80 -112 -80l-64 -8q-16 80 0 128
q32 104 120 88q48 -16 56 -56z" />
    <glyph glyph-name="Mongolian_LETTER_ANG" unicode="&#x1829;" horiz-adv-x="1768" 
d="M456 756l-64 -384q-8 -48 -32 -48q-16 0 -32 40l-56 392h-72v224h440q24 120 112 228t192 108q136 -8 168 -120q16 -208 56 -216h360v-224h-360q-48 0 -88 232q-24 72 -40 112q-56 64 -120 64t-132 -68t-68 -140q-24 -56 0 -152q32 -120 152 -248l-16 -200l-88 104
q-88 152 -128 296h-184z" />
    <glyph glyph-name="Mongolian_LETTER_BA" unicode="&#x182a;" horiz-adv-x="1480" 
d="M888 756q-32 0 -64 56q-16 24 -36 92t-28 116t-8 104q-40 168 -224 168q-232 0 -256 -312h296q96 8 96 -112v-112q0 -88 -8 -272q-56 -224 -216 -224q-80 0 -148 72t-76 152q0 -56 -8 96t-8 176v224q0 160 84 308t228 164q152 8 236 -100t84 -268q8 -88 56 -104h336v-224
h-336zM584 756h-304q-8 -88 0 -160q16 -160 152 -160q144 0 168 192q0 56 -16 128z" />
    <glyph glyph-name="Mongolian_LETTER_PA" unicode="&#x182b;" horiz-adv-x="1664" 
d="M240 756v224q0 200 100 352t284 152q136 0 208 -72q40 -56 80 -188t72 -188q0 -8 64 -56h344v-224h-344q-56 8 -56 16q-48 64 -80 144q0 8 -40 168q-64 240 -248 240q-128 0 -216 -100t-88 -244h336q80 0 112 -72v-384q0 -96 -80 -136q-72 0 -152 -32q-112 -32 -136 -88
q-16 0 -48 16q-8 80 0 112q56 144 232 160q96 56 96 200h-440z" />
    <glyph glyph-name="Mongolian_LETTER_QA" unicode="&#x182c;" horiz-adv-x="1720" 
d="M920 908q0 88 -8 200q-16 144 -144 160q-128 -16 -184 -160q-24 -8 -40 -112q-16 -48 0 -144q8 -112 72 -240q16 -24 80 -104v-72q-16 -40 -56 -76l-40 -36q-80 -8 -120 32q-80 32 -80 56q0 16 48 40l64 32q40 72 32 144q0 40 -56 128q-40 24 -120 16q-32 0 -64 -28
t-40 -28q-64 24 -40 112q8 112 104 160q32 32 120 48q24 96 40 136q64 152 112 208q104 88 200 88q120 0 184 -200q16 -64 40 -288h456v-224h-384l-64 -368q-8 -56 -32 -56q-32 0 -32 40l-48 328v208z" />
    <glyph glyph-name="Mongolian_LETTER_GA" unicode="&#x182d;" horiz-adv-x="1704" 
d="M752 116v-72q-48 -80 -112 -80l-56 -8q-24 80 0 128q32 104 120 88q40 -16 48 -56zM912 -172v-72q-56 -80 -112 -80l-64 -8q-24 80 0 120q32 112 120 96q40 -8 56 -56zM920 908q0 88 -8 200q-16 144 -144 160q-128 -16 -184 -160q-24 -8 -40 -112q-16 -48 0 -144
q8 -112 72 -240q16 -24 80 -104v-72q-16 -40 -56 -76l-40 -36q-80 -8 -120 32q-80 32 -80 56q0 16 48 40l64 32q40 72 32 144q0 40 -56 128q-40 24 -120 16q-32 0 -64 -28t-40 -28q-64 24 -40 112q8 112 104 160q32 32 120 48q24 96 40 136q64 152 112 208q104 88 200 88
q120 0 184 -200q16 -64 40 -288h456v-224h-384l-64 -368q-8 -56 -32 -56q-32 0 -32 40l-48 328v208z" />
    <glyph glyph-name="Mongolian_LETTER_MA" unicode="&#x182e;" horiz-adv-x="1416" 
d="M552 1324l-48 320q8 16 48 16l112 8q64 16 92 36t36 60q0 24 32 24l8 -160q8 -112 -96 -120l-152 -8l32 -176q72 -16 72 -152q-8 -48 -8 -80q-16 -80 -16 -112h496v-224h-496q-8 -96 -48 -392q-16 -24 -32 -24q-8 0 -16 24l-72 376q-16 104 8 248v64q0 88 -48 88
q-32 0 -96 -32l-104 -48q-40 -24 -48 -8q-8 8 0 32q40 72 144 156t176 84h24z" />
    <glyph glyph-name="Mongolian_LETTER_LA" unicode="&#x182f;" horiz-adv-x="1408" 
d="M552 1308l40 200l-128 16q-104 32 -88 168l8 104q40 0 52 -52t92 -76l104 -16q48 0 48 -32q-40 -216 -64 -368q64 -56 56 -112q-24 -120 -24 -160h504v-224h-504q-8 -88 -48 -368q-16 -16 -32 -16q-8 0 -16 16l-72 360q-8 96 16 232v64q0 88 -56 88q-24 0 -80 -32
l-104 -48q-40 -24 -48 -8q-8 8 0 24q72 128 232 216q24 0 72 24h40z" />
    <glyph glyph-name="Mongolian_LETTER_SA" unicode="&#x1830;" horiz-adv-x="1616" 
d="M472 988l56 72q48 136 96 264q24 56 40 100t48 44q56 0 80 -152l-8 -336h592v-224h-496q-16 -104 -56 -384q-16 -32 -32 -32q-8 0 -32 32l-40 368q-8 112 -8 304t-32 192q-56 -112 -144 -352q-40 -80 -68 -100t-100 -28q-80 0 -144 96q-24 72 -16 120q0 40 16 40
q56 -64 128 -64q80 0 120 40z" />
    <glyph glyph-name="Mongolian_LETTER_SHA" unicode="&#x1831;" horiz-adv-x="1624" 
d="M1016 1740v-72q-48 -80 -112 -80l-64 -8q-16 80 0 128q32 104 128 80q40 -8 48 -48zM680 1740v-72q-56 -80 -112 -80l-64 -8q-24 80 0 128q32 104 120 80q40 -8 56 -48zM472 988l56 72q48 136 96 264q24 56 40 100t48 44q56 0 80 -152l-8 -336h592v-224h-496
q-16 -104 -56 -384q-16 -32 -32 -32q-8 0 -32 32l-40 368q-8 112 -8 304t-32 192q-56 -112 -144 -352q-40 -80 -68 -100t-100 -28q-80 0 -144 96q-24 72 -16 120q0 40 16 40q56 -64 128 -64q80 0 120 40z" />
    <glyph glyph-name="Mongolian_LETTER_TA" unicode="&#x1832;" horiz-adv-x="1656" 
d="M1424 756h-488q-24 -136 -56 -392q-8 -24 -24 -24q-24 0 -32 32q-32 216 -64 384h-8q-32 0 -32 -64q-32 -72 -168 -104h-80q-80 24 -128 128l-120 192q-24 48 -16 48q40 56 152 248q80 104 184 104q184 -24 256 -200q0 -8 8 -128h616v-224zM736 924q0 232 -192 248
q-64 0 -100 -32t-84 -100t-72 -92q56 -80 72 -104q80 -112 184 -112q192 0 192 192z" />
    <glyph glyph-name="Mongolian_LETTER_DA" unicode="&#x1833;" horiz-adv-x="1480" 
d="M712 100q40 8 64 56t24 88q0 16 -16 72q-32 128 -136 128q-24 0 -48 -8q-56 -48 -72 -96q0 -48 8 -96q64 -128 176 -144zM288 756q96 -280 168 -360q80 152 224 152q88 -8 144 -108t56 -196q0 -88 -48 -172t-120 -84q-184 0 -360 368q-96 192 -152 400v224h1040v-224
h-952z" />
    <glyph glyph-name="Mongolian_LETTER_CHA" unicode="&#x1834;" horiz-adv-x="1536" 
d="M784 244q0 -16 -32 -16q-16 0 -96 24h-160q-136 0 -176 -120q-8 -16 -24 -16q-8 0 -8 16q-32 24 -8 160q40 144 112 168q152 40 288 8q-16 72 -16 144t16 144h-480v224h1096v-224h-528q-8 -88 -8 -184q0 -160 24 -328z" />
    <glyph glyph-name="Mongolian_LETTER_JA" unicode="&#x1835;" horiz-adv-x="1248" 
d="M328 756q184 -280 288 -424v-8l-64 -240l-8 -16l-8 8q-64 168 -304 680h-8v224h792v-224h-688z" />
    <glyph glyph-name="Mongolian_LETTER_YA" unicode="&#x1836;" horiz-adv-x="1288" 
d="M360 412q-104 168 -144 344h-8v224h840v-224h-760q8 -96 96 -216q24 -40 152 -184q88 -112 112 -136q8 -48 0 -88q-64 -64 -136 -72q-56 0 -128 12t-72 44q-16 16 8 16q120 56 120 88q16 24 -8 48z" />
    <glyph glyph-name="Mongolian_LETTER_RA" unicode="&#x1837;" horiz-adv-x="1248" 
d="M248 140q72 272 112 344q-8 40 -40 88q-104 160 -112 184h-8v224h824v-224h-712l368 -504l-56 -136q-8 -40 -56 -168q-24 136 -40 184q-24 96 -64 168q-24 0 -104 -64t-112 -96z" />
    <glyph glyph-name="Mongolian_LETTER_WA" unicode="&#x1838;" horiz-adv-x="1320" 
d="M1072 980v-224h-752q0 -112 80 -308t176 -228q8 -8 32 -8q48 0 80 48q8 0 32 80q16 24 48 0q0 -8 24 -72q16 -56 0 -96q-24 -64 -48 -96q-48 -48 -88 -48q-24 0 -72 8q-120 40 -232 320q-88 200 -120 400h-8v224h848z" />
    <glyph glyph-name="Mongolian_LETTER_FA" unicode="&#x1839;" horiz-adv-x="1544" 
d="M216 980q40 456 304 504q40 8 72 8q128 0 208 -108t112 -228t80 -176h256v-224h-256q-64 0 -112 128q-64 320 -184 392q-48 16 -112 16q-264 0 -288 -312h328q96 0 96 -72v-288q0 -40 -16 -104q-40 -264 -224 -264q-16 0 -48 8q-40 -56 -32 -120q40 -64 40 -104
q0 -72 -64 -72q-120 96 -144 240q0 24 64 152q-80 160 -80 400v224zM632 756h-336l8 -168q56 -176 168 -160q112 0 160 168v160z" />
    <glyph glyph-name="Mongolian_LETTER_KA" unicode="&#x183a;" horiz-adv-x="1408" 
d="M424 556q-16 -40 -60 -104t-76 -88q-8 8 -16 8q16 112 16 176q8 32 0 208h-88v224h80q8 120 56 248t120 184t184 48q144 -8 200 -264q16 -208 64 -216h256v-224h-256q-32 -16 -56 28t-40 100q-8 128 -48 240q-48 160 -120 160q-136 0 -192 -116t-56 -260q16 -96 32 -112
q32 -104 176 -248l-56 -248q-8 -8 -40 -16v48q-32 144 -80 224z" />
    <glyph glyph-name="Mongolian_LETTER_KHA" unicode="&#x183b;" horiz-adv-x="1464" 
d="M504 508l-32 -216q-16 -24 -40 -24t-44 64t-20 96q-88 152 -128 328h-40v224h24q48 224 120 328q88 144 272 152q144 -24 208 -280q16 -192 40 -200h344v-224h-344q-64 48 -80 144t-24 200q-48 184 -152 184q-208 0 -256 -304h128q24 -40 24 -96t-24 -128h-128
q16 -112 152 -248z" />
    <glyph glyph-name="Mongolian_LETTER_TSA" unicode="&#x183c;" horiz-adv-x="1592" 
d="M1064 220l24 -64v-48q0 -72 -56 -124t-128 -36q-192 0 -192 192q0 48 8 80l-32 8q-32 16 -80 16q-112 8 -160 -12t-104 -124q-16 -8 -24 -8q-32 0 -32 168q40 192 280 192q32 0 88 -16q-8 96 -8 168t16 144h-464v224h1152v-224h-600q-24 -72 -24 -168q0 -120 32 -328
q40 56 136 56t168 -96zM904 228q-48 0 -72 -20t-32 -76q-8 -48 28 -76t76 -28q88 0 88 104q24 24 -16 60t-72 36z" />
    <glyph glyph-name="Mongolian_LETTER_ZA" unicode="&#x183d;" horiz-adv-x="1592" 
d="M344 116q-16 -8 -24 -8t-8 8q-32 32 -32 168q32 176 152 176q32 8 224 0q-8 88 -8 152q0 80 16 144h-464v224h1176v-224h-624q-24 -64 -24 -216q-8 -456 176 -472q72 0 80 112q0 32 24 32q16 0 48 -32q8 -64 8 -144q-8 -48 -24 -88q-56 -24 -96 -24q-72 0 -144 40
q-104 72 -136 248q-48 32 -112 32q-96 0 -140 -20t-68 -108z" />
    <glyph glyph-name="Mongolian_LETTER_HAA" unicode="&#x183e;" horiz-adv-x="2000" 
d="M664 756q-8 -96 -56 -392q-8 -32 -24 -32t-32 32q-40 192 -56 376q-16 88 8 240v72q0 88 -48 88q-32 0 -96 -32l-104 -48q-40 -24 -48 -8q-8 8 0 32q72 144 320 256q72 8 112 -32t24 -128v-200h256l-8 -136q8 -104 24 -120q32 -200 304 -512q24 56 112 184
q-80 120 -120 216q-72 152 -72 296v48l16 24h584v-224h-480q24 -128 144 -312l56 -56q-112 -136 -168 -344h-32q-144 88 -272 320q-112 184 -184 392h-160z" />
    <glyph glyph-name="Mongolian_LETTER_ZRA" unicode="&#x183f;" horiz-adv-x="1720" 
d="M1064 756q-8 -96 -48 -392q-8 -32 -32 -32q-8 0 -32 32q-40 320 -48 376v248v64q0 88 -48 88q-32 0 -96 -32l-104 -48q-40 -24 -48 -8q-8 8 0 32q72 144 248 224q48 16 100 32t52 88q0 56 -52 84t-116 28q-80 0 -196 -60t-184 -128t-128 -196t-60 -280q0 -184 56 -352
q64 -200 184 -296q56 -48 168 -72q112 24 112 128l8 48q96 -64 80 -184q-8 -48 -56 -72q-16 -8 -64 -8q-96 -24 -212 48t-176 164t-76 124q-48 96 -72 224q-8 32 -24 248q0 232 112 408q216 328 568 352q64 -16 88 -32q96 -56 112 -152q8 -40 -16 -64q-16 -72 -40 -80
q64 -32 64 -104v-72q-24 -136 -24 -152h392v-224h-392z" />
    <glyph glyph-name="Mongolian_LETTER_LHA" unicode="&#x1840;" horiz-adv-x="1992" 
d="M664 756q-8 -96 -48 -392q-16 -24 -32 -24q-8 0 -16 24l-72 376q-16 104 8 248v64q0 88 -48 88q-32 0 -96 -32l-104 -48q-40 -24 -48 -8q-8 8 0 32q72 128 248 224h72h40l32 200l-136 16q-80 16 -80 96l-24 168q32 8 60 -36t116 -68l112 -8q48 0 48 -32
q-40 -216 -48 -368q48 -64 40 -120q-24 -136 -24 -176h248l-8 -136q8 -104 16 -120q32 -200 312 -512q16 56 112 184q-80 120 -120 216q-72 152 -72 296v48l16 24h584v-224h-480q24 -128 144 -312l48 -56q-112 -136 -160 -344h-32q-144 88 -280 320q-112 184 -184 392h-144z
" />
    <glyph glyph-name="Mongolian_LETTER_ZHI" unicode="&#x1841;" horiz-adv-x="1488" 
d="M312 724q32 -200 304 -512q24 56 112 184q-80 120 -120 216q-72 152 -72 296v48l16 24h688v-224h-584q24 -128 144 -312l56 -56q-120 -136 -168 -344h-32q-144 88 -272 320q-112 184 -184 392v224h96l-8 -136q8 -104 24 -120z" />
    <glyph glyph-name="Mongolian_LETTER_CHI" unicode="&#x1842;" horiz-adv-x="1960" 
d="M1712 988v-232h-320q0 -296 -72 -424q-72 -80 -152 -80q-264 -8 -256 504h-224q0 -296 -72 -424q-72 -80 -152 -80q-272 -8 -256 504v232h1504zM984 756q0 -168 8 -208q40 -152 168 -144q192 8 160 352h-336zM280 756q0 -168 8 -208q40 -152 160 -144q200 8 168 352h-336
z" />
    <glyph glyph-name="Mongolian_LETTER_TODO_LONG_VOWEL_SIGN" unicode="&#x1843;" horiz-adv-x="1080" 
d="M400 1276q32 40 80 40q40 0 72 -40v-296h240v-224h-488v224h96v296z" />
    <glyph glyph-name="Mongolian_LETTER_TODO_E" unicode="&#x1844;" horiz-adv-x="1776" 
d="M1008 756q0 -64 24 -188t96 -164q112 -80 192 -80q48 -56 48 -112q0 -40 -16 -80q-192 48 -264 88q-168 104 -208 336l-8 200h-192l-56 -384q-40 -32 -56 -32q-24 0 -40 32l-56 392q-8 88 0 208t-80 128q-104 -48 -124 -60t-44 -12t-24 56q24 48 112 144q152 152 256 152
q120 0 120 -128q0 -152 -24 -224v-48h872v-224h-528z" />
    <glyph glyph-name="Mongolian_LETTER_TODO_I" unicode="&#x1845;" horiz-adv-x="1736" 
d="M864 980l16 40l40 392l32 8q184 -32 256 -80q176 -112 236 -240t60 -320v-88q-24 -184 -48 -240t-104 -180t-88 -116q-64 136 -64 216v40q176 232 168 440q8 48 -28 124t-36 92q0 -8 8 -40l-8 32l-56 72q-72 104 -232 144v-936h-40q-24 32 -40 88l-56 200l-16 128h-184
l-56 -384q-24 -32 -48 -32t-40 32l-64 392q-8 80 0 208q8 120 -80 128q-104 -48 -124 -60t-44 -12t-24 56q24 48 112 144q152 152 256 152q120 0 120 -136q0 -144 -24 -216v-48h200z" />
    <glyph glyph-name="Mongolian_LETTER_TODO_O" unicode="&#x1846;" horiz-adv-x="1776" 
d="M680 756l-56 -384q-24 -32 -56 -32q-16 0 -40 32l-48 392v184q-8 144 -88 152q-40 -16 -112 -48q-8 -16 -40 -24q-40 0 -40 56q16 48 40 56l72 88q152 152 264 152t112 -144q0 -24 -8 -64v-72v-72q-16 -32 -16 -48h872v-224h-8v-568h-64q-312 0 -408 64q-32 16 -92 96
t-64 140t-20 268h-200zM992 756q0 -112 16 -160q8 -72 56 -116t72 -52q176 -56 240 -40h32q8 304 0 368h-416z" />
    <glyph glyph-name="Mongolian_LETTER_TODO_U" unicode="&#x1847;" horiz-adv-x="1848" 
d="M880 980q40 200 96 296q104 184 320 184q96 0 188 -84t140 -292q0 -64 8 -144q0 -96 -12 -116t-28 -20q-24 0 -32 8q-32 216 -72 280q-40 152 -208 152q-80 -8 -128 -32q-136 -72 -160 -232h392l48 -40l16 -40l16 -48v-256q0 -136 -16 -200t-60 -124t-108 -68
q-16 -72 64 -128q8 -8 40 -16q80 0 80 -96q0 -40 -36 -64t-84 -16q-64 8 -100 48t-56 124t-12 132q-48 -8 -120 24q-104 48 -136 160q-8 16 -16 88q-24 160 -24 296h-200l-56 -384q-24 -32 -56 -32q-16 0 -40 32l-48 392v184q-8 144 -88 152q-104 -48 -124 -60t-44 -12
t-24 56q80 96 112 144q152 152 264 152t112 -136q0 -16 -8 -72v-72v-120h200zM1016 540q40 -112 160 -112t160 120q8 112 8 208h-352q0 -160 24 -216z" />
    <glyph glyph-name="Mongolian_LETTER_TODO_OE" unicode="&#x1848;" horiz-adv-x="1760" 
d="M1120 980h416v-224h-8v-568h-64q-312 0 -408 64q-32 16 -88 80q-64 104 -72 168q-16 152 -16 256h-200l-56 -384q-40 -32 -56 -32q-24 0 -40 32l-56 392q-8 88 0 208t-80 128q-104 -48 -124 -60t-44 -12t-24 56q8 24 24 48q56 64 88 96q128 152 256 152q120 0 120 -136
q0 -144 -24 -216v-48h344l32 192q-64 144 -72 184q0 56 40 40q192 -144 192 -184q0 -16 -12 -36t-12 -36q-56 -152 -56 -160zM1016 548q40 -104 120 -120q176 -56 240 -40h32q8 304 0 368h-416q0 -160 24 -208z" />
    <glyph glyph-name="Mongolian_LETTER_TODO_UE" unicode="&#x1849;" horiz-adv-x="1856" 
d="M880 980q40 216 112 328q96 152 288 152q104 0 180 -68t116 -164q48 -208 48 -288q8 -136 -48 -136q-16 0 -16 8q-40 216 -72 280q-56 152 -208 152q-80 -8 -144 -32q-120 -72 -144 -232h384q40 -32 48 -36t20 -40t12 -52v-256l-8 -192q-24 -200 -256 -216
q-144 16 -208 72t-84 212t-20 284h-216l-40 -384q-40 -32 -56 -32q-24 0 -40 32l-56 392q-8 88 0 208t-80 128l-112 -48q-32 -24 -56 -24t-24 56q56 96 96 144q160 152 272 152t112 -136q0 -16 -16 -72v-72v-120h216zM1016 548q32 -104 152 -112q176 -24 176 320h-352
q0 -160 24 -208z" />
    <glyph glyph-name="Mongolian_LETTER_TODO_ANG" unicode="&#x184a;" horiz-adv-x="1808" 
d="M1584 12q0 -72 -44 -128t-84 -80l-208 -96l-16 -56h-32l48 360l8 16q208 24 248 128v472q-32 128 -232 128h-528q0 -72 24 -184q0 -32 20 -96t44 -64q96 -80 216 -72q40 -56 40 -128q0 -32 -16 -72q-232 48 -280 80q-168 112 -176 336l-8 200h-176l-64 -384
q-16 -32 -40 -32t-48 32l-56 384v224h1104q112 -8 184 -88t72 -200v-680z" />
    <glyph glyph-name="Mongolian_LETTER_TODO_BA" unicode="&#x184b;" horiz-adv-x="1584" 
d="M1352 36q-8 -72 -40 -136q-64 -56 -88 -88l-216 -96l-24 -56h-16l40 368l16 16q96 16 208 88q16 40 16 192t-16 296q-56 136 -224 136h-200q-8 -256 -8 -272q-16 -144 -40 -184q-104 -128 -248 -144q-160 0 -236 124t-76 476v224h856q248 0 280 -368q16 -216 16 -576z
M344 524q0 -56 48 -96t112 -40q48 -16 100 32t60 96q24 136 24 240h-368q0 -128 24 -232z" />
    <glyph glyph-name="Mongolian_LETTER_TODO_PA" unicode="&#x184c;" horiz-adv-x="1696" 
d="M296 260q-40 8 -48 40v456h-48v224h48v480h120v-480h64q8 56 24 80q40 176 112 288q96 160 240 160q168 0 200 -256q8 -160 24 -220t128 -52h304v-224q-440 -16 -440 8q-56 16 -80 116t-40 228q-32 176 -136 176h-32q-120 -8 -192 -304q-16 -80 0 -208q8 -80 40 -144
l64 -104l104 -120v-144h-456zM440 756h-72v-384h240q-24 0 -88 164t-80 220z" />
    <glyph glyph-name="Mongolian_LETTER_TODO_QA" unicode="&#x184d;" horiz-adv-x="1728" 
d="M688 1244q0 -32 -8 -48l-16 -216h832v-224h-416l-40 -384q-32 -32 -56 -32q-16 0 -48 32l-56 384h-200l-56 -384q-40 -32 -56 -32q-24 0 -40 32l-56 392q-8 88 0 208t-80 128q-104 -48 -124 -60t-44 -12t-24 56q40 72 112 144q152 152 256 152q120 0 120 -136zM600 156
h16l96 -192l-96 -176h-32l-104 176zM944 156h24l96 -192l-112 -176h-8l-112 176z" />
    <glyph glyph-name="Mongolian_LETTER_TODO_GA" unicode="&#x184e;" horiz-adv-x="1768" 
d="M656 60q0 -48 32 -80t72 -32t72 32t32 80q0 80 -104 80q-24 0 -64 -16t-40 -64zM584 44q0 88 48 144t128 56t128 -56t48 -144q0 -72 -52 -128t-124 -56t-124 56t-52 128zM1496 980v-224h-416l-40 -384q-32 -32 -56 -32q-16 0 -48 32l-56 384h-200l-56 -384
q-40 -32 -56 -32q-24 0 -40 32l-56 392q-8 88 0 208t-80 128q-40 -16 -112 -48q-24 -16 -56 -24q-24 0 -24 56q24 72 112 144q152 152 256 152q120 0 120 -136q0 -32 -8 -48l-16 -216h832z" />
    <glyph glyph-name="Mongolian_LETTER_TODO_MA" unicode="&#x184f;" horiz-adv-x="1336" 
d="M536 1308q-80 0 -128 -72t-24 -256h24q-8 -24 -8 -56q0 -48 8 -112l48 -88q40 -80 112 -200q-32 104 40 288q32 136 112 320q-24 56 -68 116t-116 60zM856 1732q16 72 40 72q8 0 48 -56l144 -408q8 -24 0 -64q-112 -72 -208 -240t-144 -320q-16 -72 -48 -256
q-8 -56 -8 -120q0 -40 8 -48v-24l-40 -40q-24 0 -44 16t-36 24q-88 104 -148 216t-60 128q0 8 -20 48t-24 68t-28 28h-88v224h40q0 -8 0 160q8 136 88 240t216 104q152 0 240 -232q24 128 40 236t32 244z" />
    <glyph glyph-name="Mongolian_LETTER_TODO_TA" unicode="&#x1850;" horiz-adv-x="1328" 
d="M608 332l-40 -16l-40 16q-24 56 -136 184q-152 184 -168 200l-24 88v96q0 112 40 240q40 176 112 240l-8 -24q40 72 128 72q184 0 192 -160v-288h424v-224h-408zM440 660l72 -64l16 32q48 288 40 512q0 32 -32 52t-64 20q-128 0 -128 -256q0 -48 8 -160q8 -16 48 -64
t40 -72z" />
    <glyph glyph-name="Mongolian_LETTER_TODO_DA" unicode="&#x1851;" horiz-adv-x="1520" 
d="M1248 756h-680l232 -424q8 -32 8 -40l-240 -376h-32q-296 704 -336 840v224h1048v-224zM440 756h-128l224 -504q32 32 72 56t40 64q-208 368 -208 384z" />
    <glyph glyph-name="Mongolian_LETTER_TODO_CHA" unicode="&#x1852;" horiz-adv-x="1576" 
d="M336 300q-32 24 -32 40q0 24 24 32h40h64q152 56 160 56q96 32 128 128q8 32 24 200h-520v224h1136v-224h-496q0 -56 -24 -248q-32 -96 -64 -136t-104 -104q104 -88 104 -160t-60 -124t-132 -52q-80 0 -148 56t-76 144v128q-24 8 -24 40zM472 212q-8 -8 -8 -40
q0 -64 48 -72q8 -16 40 -16q56 0 96 48q8 8 8 16q0 56 -64 96z" />
    <glyph glyph-name="Mongolian_LETTER_TODO_JA" unicode="&#x1853;" horiz-adv-x="1536" 
d="M432 212q-32 -8 -32 -64q0 -32 64 -64l184 -16l88 -64l88 -72q0 16 8 -48v-40q8 -16 -8 -40q-104 56 -176 88q16 0 32 -8v0q-168 64 -248 88v-8v0q-80 72 -88 72q-64 112 -72 176q-16 88 40 160l48 56q40 32 80 40h248v288h-488v224h1096v-224h-472v-528q-16 -16 -40 -16
t-48 -8q-112 24 -160 24q-48 24 -144 -16z" />
    <glyph glyph-name="Mongolian_LETTER_TODO_TSA" unicode="&#x1854;" horiz-adv-x="1560" 
d="M280 316q-8 40 -8 56q0 24 8 24l16 -8h32q104 8 200 44t116 60t52 88q0 64 16 176h-512v224h1120v-224h-496q0 -32 -24 -208q-32 -216 -104 -272t-216 -56q-40 0 -80 8q-72 16 -120 88z" />
    <glyph glyph-name="Mongolian_LETTER_TODO_YA" unicode="&#x1855;" horiz-adv-x="1232" 
d="M200 980h768v-224h-648q8 -56 8 -96q144 -272 240 -344v-48l-96 -344q-8 -24 -16 -24q-16 0 -24 16q-32 96 -32 168q-120 352 -200 672v224z" />
    <glyph glyph-name="Mongolian_LETTER_TODO_WA" unicode="&#x1856;" horiz-adv-x="1344" 
d="M600 100q40 0 64 40t24 80q0 32 -24 80q-16 128 -112 128q-24 0 -52 -8t-48 -36t-28 -52q-16 -40 8 -112q64 -112 168 -120zM288 756q24 -88 48 -188t56 -132q8 40 72 72t104 32q96 -16 148 -116t52 -204q0 -88 -56 -184q-64 -48 -112 -48q-192 0 -312 352
q-72 208 -88 416v224h912v-224h-824z" />
    <glyph glyph-name="Mongolian_LETTER_TODO_KA" unicode="&#x1857;" horiz-adv-x="1536" 
d="M912 980h336v-216h-416q-48 40 -60 92t-12 164q-8 72 -8 80q-32 144 -144 144q-104 -8 -152 -136q-72 -152 -56 -240q-8 -112 68 -240t76 -168q0 -24 -8 -56q-56 -72 -128 -88q-80 0 -96 16q-72 56 -72 80t52 44t72 52t20 64q0 40 -32 72q-32 72 -64 112h-88v224h72
q0 80 40 152q16 112 80 176l40 48q24 24 72 64q40 8 144 8q160 0 192 -264q0 -168 72 -184z" />
    <glyph glyph-name="Mongolian_LETTER_TODO_GAA" unicode="&#x1858;" horiz-adv-x="1536" 
d="M736 1108q0 72 -48 108t-80 28q-144 -16 -208 -264q-32 -96 -8 -184q8 -136 104 -224l40 -40t16 -8l-40 -232h-8l-40 72q-32 24 -56 64l-16 32q-152 -24 -152 -16q-16 16 -16 24q-8 8 44 84l52 76q-8 40 -32 128h-88v224h56q0 32 32 112q104 296 264 336q16 8 64 8
q96 0 144 -48t72 -152q8 -24 8 -136q24 -120 112 -120h328v-224h-408q-136 -32 -136 352z" />
    <glyph glyph-name="Mongolian_LETTER_TODO_HAA" unicode="&#x1859;" horiz-adv-x="1808" 
d="M1008 756q0 -88 36 -240t76 -232v-64q-40 -40 -180 -112t-172 -144q-16 -16 -32 0q-56 72 -96 376q-32 208 -40 416h-208l-48 -384q-24 -32 -56 -32q-8 0 -48 32l-40 384v224h512q0 -168 16 -400q24 -328 72 -392q24 40 84 68t84 36q-32 64 -72 368q0 96 -32 240
q0 24 4 48t36 32h368q144 0 220 -112t76 -256q0 -64 -8 -152q-24 -32 -56 -48l-24 24l-16 32q-16 88 -56 160q-72 112 -136 128h-264z" />
    <glyph glyph-name="Mongolian_LETTER_TODO_JIA" unicode="&#x185a;" horiz-adv-x="1560" 
d="M528 1460h48q144 0 212 -92t116 -388h400v-224h-392q0 -72 -32 -208q0 -64 -48 -184q-80 -144 -104 -176q8 -48 192 -200q0 8 -8 -32q-200 72 -304 72q-24 8 -184 0l-96 8l16 32l120 88q16 24 76 40t108 24q80 96 120 296q40 168 24 320l-20 180t-60 172t-160 64h-24
q-200 -40 -216 -272h264q72 0 80 -48t8 -80v-96q16 -88 -8 -272q-48 -216 -216 -216q-80 0 -140 68t-76 148q0 -8 -8 80t-8 192v224q8 56 16 120q64 336 304 360zM576 756h-264q0 -312 128 -312q104 0 128 168q8 72 8 144z" />
    <glyph glyph-name="Mongolian_LETTER_TODO_NIA" unicode="&#x185b;" horiz-adv-x="1328" 
d="M640 -36q-64 0 -112 24q-120 48 -208 312q-120 328 -120 456v472h88q144 0 288 80h24q-56 -96 -56 -184q-8 -40 0 -144h544v-224h-792q0 -32 128 -360q32 -96 48 -136q56 -88 112 -104q80 0 80 144q16 16 56 0q32 -48 32 -168q0 -56 -32 -100t-80 -68zM296 1140l-8 -160
h184l8 200l-40 -24z" />
    <glyph glyph-name="Mongolian_LETTER_TODO_DZA" unicode="&#x185c;" horiz-adv-x="1464" 
d="M344 180q0 8 8 0q8 0 16 24q56 8 240 0v96h-224l-40 -8h-48q-40 0 -40 24q0 48 40 144l48 48h160l96 -8v256h-400v224h1008v-224h-488v-712q-248 32 -280 32q-40 0 -112 -32z" />
    <glyph glyph-name="Mongolian_LETTER_SIBE_E" unicode="&#x185d;" horiz-adv-x="1416" 
d="M416 980q-8 -8 -8 -40q0 -112 40 -288q32 -104 88 -168l48 -8q0 72 8 184q16 152 56 288q16 72 88 216l88 200q32 112 32 136q0 96 -8 156t0 76q0 56 16 56q40 0 40 -16l184 -440q8 -16 0 -64q-56 -72 -104 -112q-152 -96 -224 -400l-56 -360q-8 -64 -24 -136t-16 -32
l-40 -16q-40 0 -64 8q-200 256 -232 536h-24v224h112zM576 1316l-24 -48q-16 -16 -68 -52t-116 -36q-64 -16 -64 32q0 40 52 112t84 96q136 8 136 -104z" />
    <glyph glyph-name="Mongolian_LETTER_SIBE_I" unicode="&#x185e;" horiz-adv-x="1536" 
d="M400 756l-56 -384q-24 -32 -48 -32q-16 0 -48 32l-48 384v224h1072v-224h-576l288 -456l-40 -184q-8 -16 -24 -16q-8 0 -16 8l-328 648h-176z" />
    <glyph glyph-name="Mongolian_LETTER_SIBE_IY" unicode="&#x185f;" horiz-adv-x="1208" 
d="M320 756v224h168l-184 272q24 64 64 64q24 0 40 -8l144 -240l136 248q40 8 48 8q32 0 56 -56l-168 -288h304v-224h-272l-48 -384q-32 -32 -56 -32q-8 0 -40 32l-48 384h-144z" />
    <glyph glyph-name="Mongolian_LETTER_SIBE_UE" unicode="&#x1860;" horiz-adv-x="1632" 
d="M1368 980v-224q0 -200 -32 -296q-56 -192 -208 -200q-136 -8 -208 96q-24 48 -40 88l-16 72q-24 152 -24 240h-160l-56 -384q-16 -32 -40 -32q-16 0 -40 32l-64 384v216q16 40 16 56q0 104 -56 104q-16 0 -48 -8l-152 -96q-40 0 -40 56q200 296 376 296q112 0 112 -136
v-48l-24 -216h704zM952 588q40 -176 168 -160q128 0 128 328h-296v-168zM1264 1356q-16 -8 -24 -40q-80 -80 -192 -104q-56 -8 -56 40q0 24 48 112q48 64 88 96q136 8 136 -104z" />
    <glyph glyph-name="Mongolian_LETTER_SIBE_U" unicode="&#x1861;" horiz-adv-x="1584" 
d="M1192 100l-32 8l-320 648h-120q0 -200 -32 -296q-48 -192 -208 -200q-128 -8 -192 96t-72 160q-16 152 -16 240v224h1144v-224h-376l272 -440v-24l-16 -176q-16 -16 -32 -16zM320 588q32 -176 152 -160q136 0 136 328h-296q0 -128 8 -168z" />
    <glyph glyph-name="Mongolian_LETTER_SIBE_ANG" unicode="&#x1862;" horiz-adv-x="1784" 
d="M840 756l-40 -384q-32 -40 -56 -40q-16 0 -40 40l-56 384h-168l-64 -384q-16 -32 -40 -32q-16 0 -48 32l-48 384v224h992q112 -8 192 -108t96 -220v-472q-16 -128 -20 -152t-28 -80q-24 -112 -168 -168q-72 -24 -72 -32q-32 -16 -60 -52t-36 -36l-32 -16l16 312
q8 0 48 16q88 24 120 40q96 48 112 144q32 176 32 288q0 80 -20 196t-220 116h-392z" />
    <glyph glyph-name="Mongolian_LETTER_SIBE_KA" unicode="&#x1863;" horiz-adv-x="1320" 
d="M1032 84q24 24 24 40q0 128 -136 104q-32 -8 -32 -24q-24 -40 -88 -160q-8 -8 -8 -24q0 -48 56 -24q40 0 112 24q16 0 88 72v0q-16 0 -16 -8zM1032 -220v0q-72 -56 -80 -64q-48 -24 -112 -32q-64 -16 -64 32q0 8 16 24q16 56 48 108t72 76q64 8 100 -24t36 -80
q0 -24 -24 -56zM376 980q-8 -8 -8 -40q0 -112 40 -288q32 -104 88 -168l48 -8q0 72 8 184q16 152 56 288q16 72 88 216l88 200q32 112 32 136q0 96 -8 156t0 76q0 56 16 56q40 0 40 -16l184 -440q8 -16 0 -64q-56 -72 -104 -112q-152 -96 -224 -400l-56 -360
q-8 -64 -24 -136t-16 -32l-40 -16q-40 0 -64 8q-200 256 -232 536h-24v224h112z" />
    <glyph glyph-name="Mongolian_LETTER_SIBE_GA" unicode="&#x1864;" horiz-adv-x="1808" 
d="M1312 1204q-72 -40 -112 -40q-64 -8 -64 32q0 48 48 116t88 100q136 8 136 -104q0 -24 -44 -64t-52 -40zM456 332q-72 56 -72 80q0 16 56 40t72 48q24 72 -16 156l-40 84q-32 40 -96 40q-16 0 -48 -28t-40 -28q-72 32 -72 88q0 96 72 160t160 48q8 160 96 264
q40 64 48 64l104 72q40 8 120 8q72 0 128 -56t76 -132t44 -260h472v-224h-392l-64 -384q-24 -32 -48 -32q-8 0 -48 32l-48 384q24 160 24 168q-8 72 -8 104l-24 108t-60 72t-92 36q-112 -8 -160 -112t-56 -140t-8 -124q16 -144 72 -248q80 -144 80 -160q0 -24 -8 -56
q-56 -72 -112 -88q-96 0 -112 16z" />
    <glyph glyph-name="Mongolian_LETTER_SIBE_HA" unicode="&#x1865;" horiz-adv-x="1728" 
d="M456 332q-72 56 -72 80q0 16 48 40t72 48q32 72 -8 156l-40 84q-32 40 -104 40q-8 0 -40 -28t-56 -28q-56 32 -56 88q0 72 72 148t152 60q8 160 104 264q40 64 48 64q88 72 112 76t112 4q72 0 128 -56t76 -132t44 -260h432v-224h-352l-64 -384q-24 -32 -56 -32
q-16 0 -40 32l-56 384q24 160 24 168q-16 72 -16 104q-8 72 -16 108t-56 72t-96 36q-104 -8 -152 -112t-56 -140t-8 -124q8 -144 72 -248q72 -144 72 -160q0 -24 -16 -56q-40 -72 -96 -88q-96 0 -112 16zM1168 1364q0 -40 32 -76t72 -36t72 36t32 76q0 48 -32 84t-72 36
t-72 -36t-32 -84zM1096 1356q0 80 48 136t128 56t128 -56t48 -136q0 -72 -52 -128t-124 -56t-124 56t-52 128z" />
    <glyph glyph-name="Mongolian_LETTER_SIBE_PA" unicode="&#x1866;" horiz-adv-x="1448" 
d="M440 1468q24 0 128 -120q120 112 128 112q24 8 60 -32t68 -180t40 -208t88 -60h240v-224h-336q-48 8 -60 48t-28 224q0 136 -40 196t-72 52q-32 -48 -112 -144l-88 144q-48 0 -64 -32q-80 -72 -96 -264h272q88 0 88 -128v-96q0 -112 -8 -272q-8 -80 -72 -148t-144 -68
t-144 64t-72 152q-16 144 -16 272v224q0 16 16 120q64 336 224 368zM568 756h-272q0 -64 16 -144q8 -168 120 -168q104 0 120 168q16 80 16 144z" />
    <glyph glyph-name="Mongolian_LETTER_SIBE_SHA" unicode="&#x1867;" horiz-adv-x="1536" 
d="M696 1212q-8 0 -28 -36t-68 -164t-64 -136q-80 -136 -184 -152q-40 8 -76 28t-68 84v32q-8 16 -8 32q0 56 48 136h24l16 -24q32 -56 72 -56q80 -16 120 64q64 160 144 328q72 80 104 80q72 0 80 -152l24 -296h440v-224h-368l-40 -384q-32 -40 -56 -40q-16 0 -48 40
l-40 384q0 -40 8 200q0 152 -8 204t-24 52zM256 428l16 -16q-24 48 -24 64q0 40 32 72q112 0 128 -24q120 -16 208 -160q24 -24 24 -64q0 -88 -72 -88q-24 0 -56 32v-16q0 24 -64 92t-76 68t-116 40z" />
    <glyph glyph-name="Mongolian_LETTER_SIBE_TA" unicode="&#x1868;" horiz-adv-x="1536" 
d="M432 980q0 8 -88 120l-104 104h56q64 8 96 32q104 80 184 128t112 48h48q64 0 112 -60t48 -148l-24 -224h360v-224h-264l-64 -384q-32 -32 -48 -32q-24 0 -48 32l-72 384h-536v224h232zM544 980h216l8 56l16 144q-24 64 -88 64q-8 8 -16 8q-40 0 -96 -36t-152 -84
q24 -24 72 -104z" />
    <glyph glyph-name="Mongolian_LETTER_SIBE_DA" unicode="&#x1869;" horiz-adv-x="1536" 
d="M1144 1236l-16 -40q-8 -24 -68 -60t-108 -36q-72 -8 -72 32t52 112t92 96q120 8 120 -104zM368 1196q32 48 88 72t88 16q112 0 172 -60t76 -116q0 -8 16 -128h448v-224h-256l-56 -384q-40 -32 -64 -32q-8 0 -40 32l-64 384q-32 0 -44 -28t-56 -68t-124 -64
q-40 -8 -100 12t-88 48t-80 140t-72 132t-4 28q40 40 160 240zM552 732q184 24 184 184q0 224 -176 208q-80 0 -144 -64q-16 -8 -96 -112q56 -104 96 -136q64 -72 136 -80z" />
    <glyph glyph-name="Mongolian_LETTER_SIBE_JA" unicode="&#x186a;" horiz-adv-x="1264" 
d="M640 76l-32 -16q-56 -16 -136 -16t-100 28t-20 44t16 16l40 16q64 8 72 32q56 24 56 48t-24 64q-56 80 -72 96q-168 280 -168 368v224h736v-224h-624q8 -112 232 -384q80 -80 96 -128q16 -128 -72 -168z" />
    <glyph glyph-name="Mongolian_LETTER_SIBE_FA" unicode="&#x186b;" horiz-adv-x="1368" 
d="M720 244q-72 0 -120 48q-48 24 -88 96t-40 112t-24 128t-24 128l-16 216v232q-16 72 -16 104t-24 40q-88 64 -152 80q-16 8 -16 24t16 32q96 24 112 24q72 0 104 -20t48 -28q56 -40 56 -152q0 -40 -8 -80l-16 -248h584v-224h-568q16 -168 32 -220t48 -92t72 -32
q8 -8 28 24t52 72q24 32 40 0q8 -8 32 -72q8 -32 0 -48q0 -56 -36 -96t-76 -48z" />
    <glyph glyph-name="Mongolian_LETTER_SIBE_GAA" unicode="&#x186c;" horiz-adv-x="1536" 
d="M768 1652l-24 -48q-16 -8 -72 -44t-112 -36q-56 -16 -56 24q0 32 44 112t76 96q144 8 144 -104zM584 556l-48 -240q-16 -24 -32 -24q-32 0 -36 52t-92 204q-40 -160 -128 -160q-24 0 -24 16q0 8 16 36t40 116q8 40 0 200h-24v224h24q0 160 68 284t228 132q80 0 128 -40
q24 -8 72 -48q88 -112 88 -256q16 -72 80 -72h304v-224h-368q-40 8 -72 44t-52 224t-172 188q-184 -16 -208 -232q0 -104 32 -184q80 -144 176 -240z" />
    <glyph glyph-name="Mongolian_LETTER_SIBE_HAA" unicode="&#x186d;" horiz-adv-x="1536" 
d="M600 556l-56 -240q-8 -24 -32 -24q-32 0 -48 88t-72 168q-40 -160 -136 -160q-16 0 -16 16q0 8 16 36t32 116q8 40 0 200h-16v224h16q0 136 84 264t212 136q80 0 136 -40q16 -8 64 -80t80 -224q32 -64 112 -56h264v-224h-368q-56 0 -72 64t-32 192q-8 80 -48 132t-120 60
q-192 -8 -208 -224q-8 -128 32 -192q48 -96 176 -232zM512 1636q0 -40 28 -68t68 -28q32 0 60 28t28 68q0 32 -28 60t-60 28q-40 0 -68 -28t-28 -60zM448 1636q0 64 48 108t112 44t108 -44t44 -108q0 -80 -44 -124t-108 -44q-72 0 -116 44t-44 124z" />
    <glyph glyph-name="Mongolian_LETTER_SIBE_TSA" unicode="&#x186e;" horiz-adv-x="1448" 
d="M680 1428h-240q-16 24 -16 56q0 40 32 56h232v208q24 40 40 40q32 0 56 -40v-208h232q32 -16 32 -48q0 -40 -32 -64h-216l32 -448h336v-224h-264l-64 -384q-32 -40 -48 -40q-8 0 -40 40l-32 384v424q0 32 -24 32q-8 0 -28 -36t-68 -164t-64 -136q-80 -136 -184 -152
q-40 8 -76 28t-68 84v32q-8 16 -8 32q0 56 48 136h24l16 -24q32 -56 72 -56q96 0 144 104t92 196t84 172z" />
    <glyph glyph-name="Mongolian_LETTER_SIBE_ZA" unicode="&#x186f;" horiz-adv-x="1464" 
d="M424 1484q0 40 32 56h560q32 -16 32 -48t-32 -64h-216l32 -448h336v-224h-264l-64 -384q-32 -40 -48 -40q-8 0 -40 40l-32 384v424q0 32 -24 32q-8 0 -28 -36t-68 -164t-64 -136q-80 -136 -184 -152q-40 8 -76 28t-68 84v32q-8 16 -8 32q0 56 48 136h24l16 -24
q32 -56 72 -56q96 0 120 80q96 192 200 392h-240q-16 24 -16 56z" />
    <glyph glyph-name="Mongolian_LETTER_SIBE_RAA" unicode="&#x1870;" horiz-adv-x="1296" 
d="M512 1420q64 40 96 40q40 0 88 -48v-432h264v-224h-264v-432q-40 -64 -88 -64q-32 0 -96 72v1088z" />
    <glyph glyph-name="Mongolian_LETTER_SIBE_CHA" unicode="&#x1871;" horiz-adv-x="1400" 
d="M704 268q-16 0 -56 16l-136 8q-96 0 -144 -112q-8 -24 -16 0q-32 32 -32 160q16 88 32 116t112 60h160v240h-392v224h896v-224h-368v-464q-24 -24 -56 -24zM488 1276q0 -40 32 -72t72 -32q96 0 96 104q0 48 -28 84t-68 36t-72 -40t-32 -80zM416 1268q0 80 48 136t128 56
q72 0 124 -56t52 -136q0 -72 -52 -128t-124 -56t-124 56t-52 128z" />
    <glyph glyph-name="Mongolian_LETTER_SIBE_ZHA" unicode="&#x1872;" horiz-adv-x="1216" 
d="M440 1268q0 -112 96 -112q40 0 64 36t24 76t-24 76t-64 36q-48 0 -72 -36t-24 -76zM360 1268q0 72 52 128t124 56t116 -64t44 -120q0 -88 -44 -144t-116 -56t-124 56t-52 144zM608 140q-24 -8 -56 -20t-64 -36q-56 -16 -96 -16q-24 0 -32 16q-24 24 0 48l40 40
q64 56 64 112q0 16 -48 104q-24 48 -56 96q-128 208 -128 272v224h688v-224h-568q8 -88 184 -320q88 -80 96 -136q16 -48 0 -88q0 -24 -24 -72z" />
    <glyph glyph-name="Mongolian_LETTER_MANCHU_I" unicode="&#x1873;" horiz-adv-x="1536" 
d="M240 980h1008v-224h-456l288 -440l-40 -200q-16 -16 -24 -16q-24 0 -40 8h8l-304 648h-320l280 -440l-32 -200q-8 -16 -32 -16t-32 8l-304 648v224z" />
    <glyph glyph-name="Mongolian_LETTER_MANCHU_KA" unicode="&#x1874;" horiz-adv-x="1656" 
d="M1384 76v0q-64 -72 -72 -72q-64 -24 -128 -40q-48 -8 -48 32v32q32 64 64 112t72 72q128 0 128 -104q0 -16 -16 -40v8zM1376 -252q16 32 16 56q0 104 -120 104q-40 -32 -72 -80t-64 -104q-8 -16 -8 -32q0 -40 56 -32q56 0 120 40q16 0 80 64v0zM440 756l-64 -384
q-16 -32 -40 -32q-16 0 -48 32l-56 384v224h432v-40q0 -200 32 -292t96 -164l40 -8q16 176 64 376q24 120 64 248q64 160 104 272l32 120v64q0 32 -8 92t-8 92l24 48q32 0 40 -8l192 -440q8 0 0 -56q0 -88 -104 -184q-160 -168 -208 -384q-32 -112 -64 -320q0 -32 -20 -104
t-20 -64q-40 -16 -48 -16q-32 0 -56 8q-144 168 -168 280q-56 80 -72 256h-136z" />
    <glyph glyph-name="Mongolian_LETTER_MANCHU_RA" unicode="&#x1875;" horiz-adv-x="1536" 
d="M840 980q136 0 208 -120t72 -272q0 -104 -8 -144t-48 -56l-32 24l-8 48q0 48 -40 140t-56 92q-24 64 -88 64h-480q192 -312 328 -496l-96 -216q-8 -8 -16 -8q-32 136 -136 336q-64 -40 -88 -72q-72 -32 -96 -32v24q0 8 48 152q48 56 56 96q-80 128 -128 216v224h608z" />
    <glyph glyph-name="Mongolian_LETTER_MANCHU_FA" unicode="&#x1876;" horiz-adv-x="1440" 
d="M440 980q8 88 8 120v104q-16 120 -40 144q-88 64 -152 80q-24 8 -24 24t24 32q104 24 112 24q72 0 104 -20t48 -28q56 -40 56 -152q0 -40 -16 -80l-8 -248h576v-224h-568q32 -240 80 -296t88 -56q32 8 48 44t24 52t16 16q16 0 32 -8q24 -48 24 -72q8 -32 0 -48
q0 -56 -24 -96q-48 -40 -88 -48q-112 0 -176 96q-48 56 -84 188t-36 228h-232v224h208z" />
    <glyph glyph-name="Mongolian_LETTER_MANCHU_ZHA" unicode="&#x1877;" horiz-adv-x="1224" 
d="M304 756v224h656v-224h-552l288 -440v-16l-48 -200q-16 -24 -32 -24q-8 0 -24 8zM512 1268q0 -112 96 -112q40 0 64 36t24 76t-24 76t-64 36q-48 0 -72 -36t-24 -76zM432 1268q0 72 52 128t124 56q64 0 112 -64t48 -120q0 -88 -48 -144t-112 -56q-72 0 -124 56t-52 144z
" />
    <glyph glyph-name="_This_position_shall_not_be_used_.004" unicode="&#x1878;" 
 />
    <glyph glyph-name="_This_position_shall_not_be_used_" unicode="&#x1879;" 
 />
    <glyph glyph-name="_This_position_shall_not_be_used_.002" unicode="&#x187a;" 
 />
    <glyph glyph-name="_This_position_shall_not_be_used_.003" unicode="&#x187b;" 
 />
    <glyph glyph-name="_This_position_shall_not_be_used_.020" unicode="&#x187c;" 
 />
    <glyph glyph-name="_This_position_shall_not_be_used_.019" unicode="&#x187d;" 
 />
    <glyph glyph-name="_This_position_shall_not_be_used_.018" unicode="&#x187e;" 
 />
    <glyph glyph-name="_This_position_shall_not_be_used_.013" unicode="&#x187f;" 
 />
    <glyph glyph-name="Mongolian_LETTER_ALI_GALI_ANUSVARA_ONE" unicode="&#x1880;" horiz-adv-x="1440" 
d="M368 884q0 -80 56 -140t128 -60q88 0 136 60t48 140q0 88 -48 144t-136 56q-72 0 -128 -56t-56 -144zM272 876q0 136 84 228t196 92q128 0 208 -92t80 -228t-80 -228t-208 -92q-112 0 -196 92t-84 228zM696 1428q-56 64 -56 96q0 16 40 16t80 -8q24 -8 40 -8
q224 -160 320 -392q72 -144 48 -264q8 -96 -40 -216q-88 -264 -392 -440q-72 -24 -112 -24q-48 0 -48 24q0 32 40 68t48 36v0l-8 -16q360 296 368 576q16 176 -88 320q-80 96 -240 232z" />
    <glyph glyph-name="Mongolian_LETTER_ALI_GALI_VISARGA_ONE" unicode="&#x1881;" horiz-adv-x="1672" 
d="M576 660q80 0 136 60t56 156t-56 156t-136 60q-96 0 -152 -60t-56 -156t56 -156t152 -60zM848 1100q112 136 272 136q136 0 236 -104t100 -256t-100 -260t-236 -108q-176 0 -280 152q-120 -152 -264 -152t-248 112q-96 104 -96 256t100 256t244 104q160 0 272 -136z
M1120 660q80 0 140 60t60 156t-60 156t-140 60q-88 0 -148 -60t-60 -156t60 -156t148 -60z" />
    <glyph glyph-name="Mongolian_LETTER_ALI_GALI_DAMARU" unicode="&#x1882;" horiz-adv-x="1536" 
d="M1232 148h-32q-144 152 -456 512q-8 0 -12 -4t-200 -256l-196 -252q0 8 -32 0v1448h24q64 -72 248 -304q80 -96 152 -200h32l440 504h32v-1448zM464 1172v-600l192 264v88zM1064 572v608l-232 -264v-80z" />
    <glyph glyph-name="Mongolian_LETTER_ALI_GALI_UBADAMA" unicode="&#x1883;" horiz-adv-x="1248" 
d="M832 588q-32 112 -168 152q-152 32 -304 56q-56 16 -64 88q0 16 8 24q32 32 64 40q280 8 392 80q72 56 72 144q-16 216 -240 216q-48 0 -136 -16t-104 -16q-88 24 -88 80q0 48 72 72q144 32 248 32q184 0 288 -80q72 -48 120 -176q8 -48 8 -104q0 -264 -192 -304
q96 -24 152 -116t56 -212v-72q-64 -264 -368 -264q-72 0 -176 16q-112 16 -120 16q-64 40 -64 72q0 40 48 80q56 0 148 -12t140 -12q208 0 208 216z" />
    <glyph glyph-name="Mongolian_LETTER_ALI_GALI_INVERTED_UBADAMA" unicode="&#x1884;" horiz-adv-x="1256" 
d="M424 1156q32 -104 160 -160q152 -24 296 -56q40 -24 72 -88q-16 -16 -80 -56q-272 -16 -368 -80q-40 -24 -96 -136q16 -224 240 -224q64 0 144 16t104 0q72 -16 72 -72q0 -40 -72 -80q-128 -16 -240 -16q-344 0 -416 264v80q0 264 216 304q-88 24 -152 128t-64 232v64
q56 264 368 264q56 0 296 -40q72 -40 72 -80q0 -32 -64 -80q-40 0 -136 12t-152 12q-200 0 -200 -208z" />
    <glyph glyph-name="Mongolian_LETTER_ALI_GALI_BALUDA" unicode="&#x1885;" horiz-adv-x="1296" 
d="M704 868q-232 8 -232 -152v-56q40 -64 80 -72q32 -16 32 -64q0 -56 -40 -56q-176 40 -192 192q-24 104 16 184q96 168 304 168h96q40 48 104 200q32 72 8 152q-64 104 -232 104q-40 0 -96 -32q-104 -48 -104 -168q16 -32 52 -60t44 -28q32 -16 32 -48q0 -40 -40 -64
q-104 0 -168 64q-48 64 -64 144q0 152 104 244t264 100q360 0 360 -344q-8 -136 -128 -320q80 -16 120 -120q24 -64 24 -144h-16q0 -72 -72 -208q-56 -112 -88 -120q48 -32 88 -72q64 -48 72 -88q16 -24 16 -48t-48 -24q-136 88 -200 112q-152 48 -400 24q-40 24 -40 56
t40 48q344 24 412 116t92 204q8 64 -32 112q-56 64 -168 64z" />
    <glyph glyph-name="Mongolian_LETTER_ALI_GALI_THREE_BALUDA" unicode="&#x1886;" horiz-adv-x="1840" 
d="M472 996q8 24 64 112q48 72 56 120q0 56 -40 96t-88 40q-128 -8 -136 -136q24 -56 80 -96v-24q0 -48 -48 -48h-24q-80 48 -104 168q0 256 240 256q88 0 152 -64t64 -152v-40q-24 -64 -32 -64q-32 -72 -104 -184q56 -8 96 -56q48 -72 48 -168q-32 -104 -88 -184l-72 -72
l120 -176v-32q-8 -8 -24 -8q-128 128 -368 152q-8 8 -8 24q0 8 8 8l208 80q112 112 136 208q0 72 -44 108t-92 36q-56 0 -96 -36t-40 -92q24 -72 64 -88v-24q0 -48 -48 -48q-16 0 -16 8q-72 0 -88 152q0 96 64 160t160 64zM1048 1228q0 136 -136 136q-48 0 -84 -40t-36 -96
q8 -56 56 -96v-24q0 -48 -40 -48h-8q-80 40 -104 168q-8 120 64 192t168 64q96 0 152 -64t56 -152v-40l-16 -64q-48 -72 -120 -184q144 -32 144 -224q-24 -160 -160 -256l136 -176q8 -24 0 -32q0 -8 -24 -8q-136 128 -376 152q-24 0 -24 8q0 24 24 24l200 80
q112 112 136 208q0 56 -40 100t-96 44q-120 0 -120 -144q8 -56 72 -88q0 -48 -56 -48q-16 0 -24 8q-48 24 -64 40q-24 32 -32 88q0 96 68 168t156 72q32 40 56 88q56 80 72 144zM1376 996q8 24 56 104q56 80 64 128q0 56 -40 96t-96 40q-48 0 -84 -40t-36 -96q8 -56 72 -96
v-24q0 -48 -56 -48h-8q-104 48 -112 168q24 256 240 264q88 0 148 -68t60 -156v-40q-8 -48 -128 -248q144 -24 144 -208q-24 -176 -160 -272l120 -184v-32q-16 -16 -24 -16q-144 144 -368 168q-8 8 -8 24q0 8 8 8l208 80q112 112 128 208q0 56 -40 100t-88 44q-56 0 -92 -44
t-36 -100q8 -56 72 -88q0 -48 -48 -48q-24 0 -32 8q-40 24 -64 40q-16 32 -32 88q0 96 68 168t164 72z" />
    <glyph glyph-name="Mongolian_LETTER_ALI_GALI_A" unicode="&#x1887;" horiz-adv-x="1976" 
d="M1528 980q144 0 184 -32q8 -24 8 -80q-32 -72 -120 -248q-40 -64 -96 -144q-16 -32 -48 -32q-24 0 -36 28t-12 36l80 224q0 24 -64 24h-744l-40 -368q-32 -32 -56 -32q-8 0 -40 32l-64 368v312v32q0 32 -24 32t-56 -24l-160 -72q-40 0 -40 48q24 72 144 172t200 100
q24 8 32 8q88 0 88 -136v-248h864z" />
    <glyph glyph-name="Mongolian_LETTER_ALI_GALI_I" unicode="&#x1888;" horiz-adv-x="1624" 
d="M840 980q40 112 80 192q64 112 136 184q112 96 184 80q80 24 112 -48q64 -48 40 -304q0 -72 -8 -96q-8 -48 -48 -48q-24 0 -24 72q-16 152 -28 192t-52 40q-24 0 -40 -8q-56 -24 -72 -40q-24 -16 -56 -56q-128 -128 -128 -296v-88q56 -208 128 -232q24 -8 48 -8t40 8
q24 32 40 88q40 48 72 40q32 -56 16 -96q-32 -168 -104 -200h-40q-80 0 -112 16q-88 64 -120 168q-40 128 -64 216h-152l-40 -368q-32 -32 -48 -32q-24 0 -56 32l-64 368l16 312v24q-16 32 -32 32q-24 0 -64 -24l-160 -72q-40 0 -40 40q24 72 148 172t204 116h32
q80 0 96 -128v-248h160z" />
    <glyph glyph-name="Mongolian_LETTER_ALI_GALI_KA" unicode="&#x1889;" horiz-adv-x="1440" 
d="M880 980h264v-224h-264q-8 8 -20 16t-20 32q-32 96 -40 152q-8 72 -56 128q-56 48 -160 48q-80 0 -144 -96q-40 -48 -40 -96q-8 -40 0 -136q0 -48 48 -136l72 -72q32 -24 40 -24l-16 -168q0 -32 -24 -32q-32 32 -56 72q-72 104 -88 136q-56 136 -72 272v96q32 112 48 144
q24 72 80 120q104 80 200 72q160 0 208 -160q8 -24 20 -84t20 -60z" />
    <glyph glyph-name="Mongolian_LETTER_ALI_GALI_NGA" unicode="&#x188a;" horiz-adv-x="1632" 
d="M584 1356q80 0 96 -128v-248h184q48 176 128 256q88 48 168 48q120 -8 176 -176q16 -120 40 -128v-224q-8 0 -20 8t-20 40q-32 96 -40 144q-16 80 -56 120q-16 32 -40 56q-8 8 -72 8q-88 -8 -144 -96q-40 -56 -40 -112q-8 -24 -8 -128q8 -40 48 -136q40 -72 56 -80
l72 -96l-16 -152q-16 -8 -32 0q-40 32 -56 72q-88 136 -104 176q-32 104 -40 160h-184l-32 -352q-32 -32 -48 -32q-24 0 -56 32l-64 368l16 312q8 56 -32 56q-24 0 -64 -24l-160 -72q-40 0 -40 40q24 64 152 168q80 80 152 104q24 8 44 12t36 4zM712 28q0 8 -24 -40
q-24 -24 -72 -64q-64 -24 -112 -32q-64 -8 -64 32q0 24 8 32t48 88q40 64 80 88q64 8 88 -16q48 -32 48 -88z" />
    <glyph glyph-name="Mongolian_LETTER_ALI_GALI_CA" unicode="&#x188b;" horiz-adv-x="1536" 
d="M768 300q72 -96 104 -144q72 -88 48 -192q-8 -64 -56 -80q-56 -8 -112 0q-104 32 -128 104l16 8q72 8 120 8q40 8 40 64q0 16 -8 48q-32 88 -80 144h-208q-64 8 -96 -16l-48 -128q-16 -8 -16 0q-32 40 -32 208q16 72 32 104q16 40 112 56h224v272h-480v224h1040v-224
h-472v-456z" />
    <glyph glyph-name="Mongolian_LETTER_ALI_GALI_TTA" unicode="&#x188c;" horiz-adv-x="1464" 
d="M408 460q-48 40 -64 48t-16 40q0 40 40 48q72 -8 104 -48q32 -24 136 -248l40 -8l20 40t28 60t8 52q-80 144 -168 312h-232v224h880v-224h-552l176 -312q8 -72 0 -104q-88 -152 -120 -272q-24 -40 -40 -32q-128 232 -240 424z" />
    <glyph glyph-name="Mongolian_LETTER_ALI_GALI_TTHA" unicode="&#x188d;" horiz-adv-x="1616" 
d="M1376 980v-224h-136l-32 -32l-80 -392v-128l-56 -24l-336 344l-8 -48q-32 -208 -216 -216q-136 -8 -192 104q-40 64 -64 152q-8 72 -32 240v224h1152zM352 756q0 -88 16 -168q32 -120 136 -120q56 0 84 24t44 96q16 40 16 168h-296zM768 756q-24 -40 -8 -96l240 -232
l32 8l72 320h-336z" />
    <glyph glyph-name="Mongolian_LETTER_ALI_GALI_DDA" unicode="&#x188e;" horiz-adv-x="1448" 
d="M1176 980v-224h-840q16 -136 80 -320q64 -136 128 -184q40 -48 80 -32q40 32 40 48t-8 32l-96 160q-8 48 -8 56q0 56 32 72q8 24 40 24q32 8 48 0q32 -32 96 -72q64 -64 144 -176v-32q0 -16 -8 -16q-16 0 -32 8q-72 80 -176 184q-24 8 -48 8q-32 0 -32 -16q0 -24 8 -40
q40 -56 72 -104q64 -128 72 -176q8 -80 -72 -112q-32 -8 -80 -8q-24 0 -56 8q-48 16 -96 72q-24 40 -56 72q-48 88 -80 160q-48 144 -96 384v224h944z" />
    <glyph glyph-name="Mongolian_LETTER_ALI_GALI_NNA" unicode="&#x188f;" horiz-adv-x="1224" 
d="M376 172l-80 160q-40 112 -72 424v224h760v-224h-680q0 -56 32 -184q24 -136 40 -176q72 -144 96 -144q8 104 136 88q120 -8 112 -136q0 -128 -112 -136q-128 -8 -232 104z" />
    <glyph glyph-name="Mongolian_LETTER_ALI_GALI_TA" unicode="&#x1890;" horiz-adv-x="1360" 
d="M400 404q-72 168 -96 352v224h784v-224h-568q72 -24 148 -112t124 -208q8 -8 16 -80t8 -96q0 -144 -112 -144q-16 0 -48 24q-80 16 -184 128q-32 72 -72 136zM432 740h-56q0 -120 136 -336q48 -72 120 -104q24 -8 56 -8q32 8 32 64q0 32 -16 72q-112 256 -272 312z" />
    <glyph glyph-name="Mongolian_LETTER_ALI_GALI_DA" unicode="&#x1891;" horiz-adv-x="1280" 
d="M256 756v224h768v-224h-664q56 -208 160 -440h24l88 120l-80 216l40 -8l112 -256q16 -16 16 -32q0 -24 -24 -40l-176 -240q-8 -32 -32 -8q-112 264 -232 688z" />
    <glyph glyph-name="Mongolian_LETTER_ALI_GALI_PA" unicode="&#x1892;" horiz-adv-x="1296" 
d="M328 580q-8 16 40 16q32 0 40 -16q24 -136 152 -112q112 8 136 128q8 64 8 160h-400v224q32 104 56 152q40 160 160 232q56 48 136 64q32 8 48 8q128 0 208 -96q16 -16 48 -112q32 -128 32 -248h-48v-224q0 96 -24 232q-32 168 -112 224q-48 40 -152 40q-104 -8 -184 -96
q-64 -88 -64 -176h280q56 0 80 -40q24 -56 24 -96v-88q-16 -208 -16 -256q-32 -232 -200 -240q-200 8 -240 216q-16 48 -8 104z" />
    <glyph glyph-name="Mongolian_LETTER_ALI_GALI_PHA" unicode="&#x1893;" horiz-adv-x="1256" 
d="M672 980q32 0 72 -40q24 -24 24 -72v-328q0 -112 -80 -152q-40 -16 -128 -24q-40 -8 -88 -8q-24 -16 -40 -32q-24 -8 -24 -56q8 -16 40 -56q64 -32 136 -32q32 0 48 8q32 0 64 16t40 16q56 8 72 -32q24 -80 -12 -104t-124 -24q-56 0 -120 8q-120 8 -192 112
q-24 40 -40 88q0 96 8 120q24 80 80 128q40 32 144 40q24 0 64 24q56 40 56 176h-368v224q0 32 16 104q72 304 304 344q40 8 72 8q96 0 152 -40q56 -32 56 -48q72 -80 80 -368h-40v-224q-16 96 -40 304q-64 216 -280 192q-88 -8 -152 -96t-64 -176h264z" />
    <glyph glyph-name="Mongolian_LETTER_ALI_GALI_SSA" unicode="&#x1894;" horiz-adv-x="1432" 
d="M704 1460q88 0 112 -72q24 -232 32 -408h312v-224h-272l-56 -392q-32 -32 -56 -32q-16 0 -40 40l-16 368v400q0 64 -16 72q-8 32 -48 32q-48 -8 -80 -48q-24 -32 -40 -64q-56 -72 -72 -232q-16 -72 -16 -160q16 -128 16 -256q16 -72 16 -144q-32 -48 -64 -40
q-64 200 -88 312q-8 40 -24 144v120q24 152 72 256q24 48 88 144q80 120 160 160q8 24 80 24zM632 -44q24 32 24 40q0 64 -40 88q-24 24 -96 16q-16 -16 -32 -24q-8 -8 -40 -64q-32 -24 -56 -88v-32q0 -40 56 -32l112 32q16 8 88 72v0zM920 -84q8 32 8 40q0 56 -24 88
q-32 24 -96 16q-16 -16 -32 -24t-48 -64q-24 -24 -56 -88v-32q0 -40 64 -32q40 8 112 32q16 8 72 72v0v-8z" />
    <glyph glyph-name="Mongolian_LETTER_ALI_GALI_ZHA" unicode="&#x1895;" horiz-adv-x="1536" 
d="M1216 980v-224h-272l-56 -392q-24 -24 -48 -24q-8 0 -40 24l-56 400v216q0 8 16 112q8 120 8 192q0 128 -32 144q-48 56 -104 56q-88 0 -168 -136q-136 -256 -136 -512q0 -96 24 -176q64 -432 200 -480q32 -40 72 -40q48 0 80 32q16 8 16 32q0 16 -24 40l-8 8q0 8 4 12
l4 4q104 -16 144 -64q0 -32 8 -72q16 -32 -16 -72q-16 -16 -24 -32q-48 -40 -136 -40q-120 0 -240 120q-96 112 -176 432q-32 128 -32 376q0 216 104 432q80 176 176 224q72 72 184 64q112 -24 152 -104q40 -72 40 -224q0 -40 -8 -112v-216h344z" />
    <glyph glyph-name="Mongolian_LETTER_ALI_GALI_ZA" unicode="&#x1896;" horiz-adv-x="1448" 
d="M776 116q-40 -56 -72 -72q-8 -8 -240 -32l-48 -16l-16 16q16 96 104 160l192 16q32 40 32 128h-264l-56 -16q-40 -8 -56 -48q-24 -8 -32 0q-16 8 -16 120q16 56 48 104q24 48 96 64q40 -16 272 0v216h-496v224h944v-224h-368v-424q0 -128 -24 -216z" />
    <glyph glyph-name="Mongolian_LETTER_ALI_GALI_AH" unicode="&#x1897;" horiz-adv-x="1088" 
d="M392 764q8 -192 112 -248q16 -8 40 -8q32 0 52 20t36 84q40 48 72 40q24 -56 24 -96q-40 -184 -104 -200q-16 -16 -48 -16q-72 0 -104 32q-80 72 -112 144q-56 104 -56 240v224q32 144 144 248q72 56 168 56q120 -8 184 -160q16 -144 40 -144v-224q-8 8 -24 8
q-16 16 -24 40q-24 96 -32 152q-24 72 -56 128q-48 40 -60 44t-52 4q-88 0 -152 -96q-48 -56 -48 -112q-16 -40 0 -160z" />
    <glyph glyph-name="Mongolian_LETTER_TODO_ALI_GALI_TA" unicode="&#x1898;" horiz-adv-x="1408" 
d="M304 756v224h816v-224h-512l120 -312h184q40 16 40 -56t-40 -72h-168l-160 -256q-24 -16 -32 0zM544 756h-152l168 -464q32 8 28 8t76 128z" />
    <glyph glyph-name="Mongolian_LETTER_TODO_ALI_GALI_ZHA" unicode="&#x1899;" horiz-adv-x="1536" 
d="M1272 756h-216l-8 -200q-48 -152 -184 -152q-120 8 -164 64t-52 176v152q16 176 184 184h120q0 8 -8 104q0 72 -16 80q-56 120 -208 120q-104 0 -188 -44t-116 -116q-48 -152 -48 -256q0 -32 24 -224q8 -176 120 -280q104 -80 264 -80h64q48 0 48 -64q0 -72 -48 -80
q-296 -24 -440 128q-112 104 -136 272q-32 176 -32 344q0 208 104 360q72 104 136 136q80 72 216 72q176 0 256 -96q80 -88 88 -288v-88h240v-224zM776 772q-32 -88 -32 -128q16 -104 104 -104q96 0 116 108t-92 148z" />
    <glyph glyph-name="Mongolian_LETTER_MANCHU_ALI_GALI_GHA" unicode="&#x189a;" horiz-adv-x="1952" 
d="M456 340q-72 56 -72 88q0 16 24 32q64 8 96 48q32 72 -8 144q-32 64 -64 112q-8 32 -80 16q-24 0 -48 -24t-48 -24q-56 32 -56 96q0 120 112 184q72 24 112 16q8 56 48 176q40 104 64 136q48 56 96 84t104 28t88 -24l16 -16q64 -48 96 -144q16 -96 40 -288h688v-224h-608
l-64 -384q-24 -32 -48 -32q-8 0 -40 32l-40 384v40v72q0 120 -8 160q-16 72 -24 96q-32 112 -136 88q-48 0 -68 -24t-52 -88q-32 -88 -32 -112q-8 -48 -8 -112q8 -96 20 -140t52 -116q40 -80 72 -112v-40v-56q-56 -72 -128 -88q-80 0 -96 16zM1240 1364v-40t-40 -80t-80 -80
q-24 -24 -40 -24q-40 0 -40 56q0 16 8 100t32 116q56 24 96 16q48 -8 64 -64zM1392 1268q0 -40 32 -76t72 -36t72 36t32 76q0 48 -32 80t-72 32t-72 -32t-32 -80zM1320 1268q0 72 52 128t124 56t124 -56t52 -128q0 -88 -52 -144t-124 -56t-124 56t-52 144z" />
    <glyph glyph-name="Mongolian_LETTER_MANCHU_ALI_GALI_NGA" unicode="&#x189b;" horiz-adv-x="1536" 
d="M240 1084q48 80 156 168t188 104h32q96 0 104 -128v-248h520v-224h-512l-40 -368q-32 -32 -48 -32q-24 0 -56 32l-56 368l8 312v32q-8 24 -32 24t-64 -24l-160 -72q-40 0 -40 56zM904 500q0 -56 24 -84t64 -28q48 0 76 28t28 84q0 40 -28 76t-76 36q-40 0 -64 -36
t-24 -76zM824 484q0 88 48 144t120 56t124 -56t52 -144q0 -80 -52 -136t-124 -56t-120 56t-48 136z" />
    <glyph glyph-name="Mongolian_LETTER_MANCHU_ALI_GALI_CA" unicode="&#x189c;" horiz-adv-x="1536" 
d="M424 1380q0 32 32 48h560q40 -16 40 -48t-40 -56h-224l24 -344h456v-224h-368l-64 -392q-32 -32 -48 -32q-24 0 -56 32l-16 392v256v120q0 32 -24 32q-8 0 -32 -48q-24 -56 -64 -136q-48 -80 -64 -112q-72 -144 -184 -144q-88 -8 -144 112q-8 8 -8 64q0 40 40 120h32
l16 -40q32 -40 64 -48q88 8 128 72q96 96 200 320h-224q-32 24 -32 56zM656 1644q0 -40 28 -68t68 -28q32 0 56 28t24 68q0 32 -24 56t-56 24q-40 0 -68 -24t-28 -56zM592 1644q0 56 48 104t112 48t108 -48t44 -104q0 -80 -44 -124t-108 -44t-112 44t-48 124z" />
    <glyph glyph-name="Mongolian_LETTER_MANCHU_ALI_GALI_JHA" unicode="&#x189d;" horiz-adv-x="1704" 
d="M408 1468q0 32 48 56h560q32 -24 32 -56q0 -16 -32 -72h-216l24 -416h632v-224h-560l-64 -392q-32 -24 -48 -24t-48 24l-24 392q0 184 8 256v168q-8 32 -32 32l-32 -40q-32 -80 -56 -160l-72 -144q-88 -128 -184 -136q-48 0 -72 32q-48 8 -64 72q0 8 -4 28t-4 44
q0 40 40 112h16l24 -32q32 -40 72 -40q88 0 120 72q128 248 208 376h-240q-32 32 -32 72zM1152 1236q0 -40 28 -72t68 -32q48 0 76 32t28 72q0 48 -28 84t-76 36q-40 0 -68 -36t-28 -84zM1080 1236q0 80 48 136t120 56t124 -56t52 -136t-52 -140t-124 -60t-120 60t-48 140z
" />
    <glyph glyph-name="Mongolian_LETTER_MANCHU_ALI_GALI_TTA" unicode="&#x189e;" horiz-adv-x="1296" 
d="M1024 980v-224h-464l200 -416q8 -8 8 -56l-96 -240l-8 -8l-16 8l-416 1304q24 32 32 32q16 0 32 -16l152 -384h576zM584 1268q0 -56 24 -84t64 -28q48 0 76 28t28 84q0 48 -28 80t-76 32q-40 0 -64 -32t-24 -80zM504 1268q0 72 52 128t116 56q88 0 132 -52t44 -132
q0 -88 -52 -144t-124 -56q-64 0 -116 56t-52 144z" />
    <glyph glyph-name="Mongolian_LETTER_MANCHU_ALI_GALI_DDHA" unicode="&#x189f;" horiz-adv-x="1328" 
d="M1056 980v-224h-712l192 -416q8 -16 8 -56l-80 -240q-8 -8 -24 -8l-16 8l-184 712v224h816zM320 1268q0 -56 32 -84t72 -28t64 28t24 84q0 40 -24 76t-64 36t-72 -36t-32 -76zM248 1252q0 88 48 144t128 56q72 0 124 -56t52 -144q0 -72 -52 -128t-124 -56t-124 56
t-52 128zM768 1268q0 -40 28 -76t68 -36t72 36t32 76q0 48 -32 80t-72 32t-68 -32t-28 -80zM688 1268q0 80 52 132t124 52q80 8 128 -48t48 -136q0 -88 -52 -144t-124 -56t-124 56t-52 144z" />
    <glyph glyph-name="Mongolian_LETTER_MANCHU_ALI_GALI_TA" unicode="&#x18a0;" horiz-adv-x="1280" 
d="M728 340l-184 -280q-24 -16 -32 0l-248 696v224h752v-224h-456zM504 756h-152l168 -464q32 8 28 8t76 128zM928 1212q0 16 -8 -40q-16 -16 -80 -64q-48 -16 -112 -24q-64 -24 -64 24q0 24 4 36t60 92q40 56 80 80q64 0 96 -24q24 -16 24 -80z" />
    <glyph glyph-name="Mongolian_LETTER_MANCHU_ALI_GALI_DHA" unicode="&#x18a1;" horiz-adv-x="1848" 
d="M416 1180q24 48 96 72q48 24 88 24q104 0 176 -64q40 -48 64 -104q0 -8 16 -128h736v-224h-552l-56 -392q-32 -24 -56 -24q-8 0 -40 24l-72 392q-16 0 -40 -32q-8 -24 -40 -64q-64 -48 -136 -64q-112 -24 -184 56q-40 40 -84 148t-68 124t0 32q48 64 80 128q64 88 72 96z
M600 732q176 8 184 184q0 216 -184 216q-104 -24 -148 -72t-84 -120q40 -64 96 -132t136 -76zM1136 1348v-56l-40 -80q-40 -48 -88 -80q-16 -8 -40 -8q-40 0 -40 40q0 32 12 108t28 108q64 40 96 32q48 -16 72 -64zM1288 1276q0 -40 24 -72t80 -32q32 0 60 32t28 72
q0 48 -28 84t-60 36q-56 0 -80 -36t-24 -84zM1208 1276q0 80 52 136t124 56q64 0 116 -56t52 -136t-52 -136t-116 -56q-72 0 -124 56t-52 136z" />
    <glyph glyph-name="Mongolian_LETTER_MANCHU_ALI_GALI_SSA" unicode="&#x18a2;" horiz-adv-x="1440" 
d="M648 1180q-32 -56 -64 -192q-40 -88 -48 -120q-80 -128 -192 -136q-48 0 -72 32q-48 8 -64 72q0 8 -4 28t-4 44q0 40 40 112h32l16 -32q24 -40 64 -40q88 0 128 72q72 208 144 336q56 80 104 80q40 0 56 -24q24 -64 24 -144l16 -288h328v-224h-256l-64 -384
q-32 -32 -48 -32t-48 32l-24 384v256q0 96 -16 160q-8 56 -16 56zM712 68q8 32 8 40q0 64 -32 96q-32 16 -88 8q-24 0 -40 -12t-32 -52q-56 -72 -64 -112q-8 -8 -8 -32q0 -40 72 -32q40 16 96 32q24 8 88 72v0v-8zM984 28q24 32 24 48q0 56 -40 80q-24 24 -96 16
q-16 -16 -32 -24q-8 -8 -40 -64q-16 -24 -48 -88q-16 -8 -16 -32q0 -40 64 -32l112 32q8 8 80 72v0z" />
    <glyph glyph-name="Mongolian_LETTER_MANCHU_ALI_GALI_CYA" unicode="&#x18a3;" horiz-adv-x="1440" 
d="M1136 980v-224h-504l200 -416q8 -16 8 -56l-96 -240l-8 -16l-16 16l-416 1304q24 16 32 16h32l152 -384h616z" />
    <glyph glyph-name="Mongolian_LETTER_MANCHU_ALI_GALI_ZHA" unicode="&#x18a4;" horiz-adv-x="1536" 
d="M304 436l24 -8v0q-32 40 -32 56q0 40 32 64q120 8 144 -8q104 -24 200 -176q64 -64 64 -120q0 -32 -32 -32q-40 0 -120 48q-64 64 -168 144q-48 24 -112 32zM720 1132q-88 -184 -128 -256q-88 -136 -184 -144q-56 8 -80 32q-40 16 -64 80q0 8 -4 32t-4 32q0 40 40 120
q8 8 24 0h8l24 -40q24 -40 56 -40h64q32 8 72 72q96 192 144 280l40 64q24 32 64 40q40 0 56 -40t16 -120l16 -264h352v-224h-272l-56 -384q-24 -32 -48 -32q-16 0 -40 32l-40 392v248l-8 104q0 64 -16 64zM712 1628q0 -32 28 -60t68 -28t68 28t28 60q0 48 -28 72t-68 24
t-68 -24t-28 -72zM648 1628q8 72 52 116t108 44t112 -44t48 -116t-48 -116t-112 -44t-112 44t-48 116z" />
    <glyph glyph-name="Mongolian_LETTER_MANCHU_ALI_GALI_ZA" unicode="&#x18a5;" horiz-adv-x="1536" 
d="M720 1132q-88 -184 -128 -256q-88 -136 -184 -144q-56 8 -80 32q-40 16 -64 80q0 8 -4 32t-4 32q0 40 40 120q8 8 24 0h8l24 -40q24 -40 56 -40h64q32 8 72 72q96 192 144 280l40 64q24 32 64 40q40 0 56 -40t16 -120l16 -264h352v-224h-272l-56 -384q-24 -32 -48 -32
q-16 0 -40 32l-40 392v248l-8 104q0 64 -16 64zM712 1628q0 -32 28 -60t68 -28t68 28t28 60q0 48 -28 72t-68 24t-68 -24t-28 -72zM648 1628q8 72 52 116t108 44t112 -44t48 -116t-48 -116t-112 -44t-112 44t-48 116z" />
    <glyph glyph-name="Mongolian_LETTER_ALI_GALI_HLAF_U" unicode="&#x18a6;" horiz-adv-x="1288" 
d="M368 724q-16 32 -64 32v224h720v-224h-192l-200 -368l-24 -16l-56 16zM728 756h-256l32 -88q32 -72 80 -160q8 0 24 8q80 80 88 144q32 72 32 96z" />
    <glyph glyph-name="Mongolian_LETTER_ALI_GALI_HLAF_YA" unicode="&#x18a7;" horiz-adv-x="1408" 
d="M1128 756h-336q24 -88 48 -184q8 -64 -8 -216q-24 -136 -136 -272q-80 -112 -208 -184q-48 32 -40 64q32 136 60 264t28 208q0 216 -200 320h-32v224h112q32 -24 64 -40q64 -64 96 -136q72 -160 72 -264q0 -56 -32 -200v-48q0 -32 8 -32t64 80q56 104 56 232q0 48 -8 112
q-16 40 -80 96v200h472v-224z" />
    <glyph glyph-name="Mongolian_LETTER_MANCHU_ALI_GALI_BHA" unicode="&#x18a8;" horiz-adv-x="1280" 
d="M352 1132q48 160 160 232q64 40 136 48q88 8 168 -32q80 -56 112 -152q32 -128 32 -248h-48v-224q0 96 -24 232q-24 168 -96 224q-56 40 -168 32q-104 0 -160 -88t-64 -176h288q56 0 72 -40q16 -56 16 -96v-88q0 -104 -8 -272q-32 -224 -208 -224q-192 8 -232 208
q0 8 -24 288v224q16 32 48 152zM696 756h-304q0 -88 8 -160q32 -136 160 -128q32 0 56 8q56 32 72 112q8 64 8 168zM768 1636q0 -48 28 -72t60 -24q40 0 68 24t28 72q0 40 -28 64t-68 24q-32 0 -60 -24t-28 -64zM704 1636q0 64 44 108t108 44q72 0 116 -44t44 -108
q0 -80 -44 -124t-116 -44q-64 0 -108 44t-44 124z" />
    <glyph glyph-name="Mongolian_LETTER_ALI_GALI_DAGALGA" unicode="&#x18a9;" horiz-adv-x="2352" 
d="M616 92q80 -96 88 -256q0 -96 -8 -136q-8 -32 -48 -40q-32 16 -56 56q0 112 -56 160q-72 64 -160 48h-144v248h144q136 0 240 -80zM848 1468q0 8 12 20t28 12t24 -12t8 -20q0 -24 -8 -32t-32 -8q-8 0 -20 8t-12 32zM744 1356q0 8 12 20t36 12q8 0 16 -12t8 -20
q0 -24 -8 -32t-32 -8q-8 0 -20 8t-12 32zM664 1220q0 8 12 20t28 12t24 -12t8 -20q0 -16 -8 -28t-32 -12q-8 0 -20 12t-12 28zM616 1068q0 8 8 20t32 12q8 0 20 -12t12 -20q0 -24 -12 -32t-28 -8t-24 8t-8 32zM608 900q0 16 8 24t32 8q8 0 16 -8t8 -24t-8 -28t-32 -12
q-8 0 -16 12t-8 28zM624 740q0 8 12 20t28 12q8 0 20 -12t12 -20q0 -24 -12 -32t-28 -8q-8 0 -20 8t-12 32zM672 604q0 16 12 24t36 8q8 0 16 -8t8 -24t-8 -28t-32 -12q-8 0 -20 12t-12 28zM736 484q0 8 12 20t28 12t24 -12t8 -20q0 -24 -8 -32t-32 -8q-8 0 -20 8t-12 32z
M840 380q0 8 12 20t28 12q8 0 20 -12t12 -20q0 -16 -12 -28t-28 -12q-8 0 -20 12t-12 28zM960 292q0 8 12 16t28 8t24 -8t8 -16q0 -24 -8 -32t-32 -8q-8 0 -20 8t-12 32zM1096 228q0 8 12 20t28 12q8 0 20 -12t12 -20q0 -24 -12 -32t-28 -8q-8 0 -20 8t-12 32zM1240 196
q0 8 8 20t32 12q8 0 20 -12t12 -20q0 -16 -12 -28t-28 -12t-24 12t-8 28zM1424 196q0 8 8 20t32 12q8 0 20 -12t12 -20q0 -16 -12 -28t-28 -12t-24 12t-8 28zM1576 252q0 8 12 16t28 8t24 -8t8 -16q0 -24 -8 -36t-32 -12q-8 0 -20 12t-12 36zM1720 316q0 16 12 24t28 8
q8 0 20 -8t12 -24t-12 -28t-28 -12q-8 0 -20 12t-12 28zM1832 412q0 8 12 20t28 12t24 -12t8 -20q0 -24 -8 -32t-32 -8q-8 0 -20 8t-12 32zM1928 532q0 16 8 24t32 8q8 0 20 -8t12 -24t-12 -28t-36 -12q-8 0 -16 12t-8 28zM1984 660q0 8 12 20t28 12t24 -12t8 -20
q0 -24 -8 -32t-32 -8q-8 0 -20 8t-12 32zM2024 812q0 8 12 20t36 12q8 0 16 -12t8 -20q0 -24 -8 -32t-32 -8q-8 0 -20 8t-12 32zM2040 956q0 8 8 20t32 12q8 0 20 -12t12 -20q0 -24 -12 -32t-28 -8t-24 8t-8 32zM2024 1084q0 16 12 24t36 8q8 0 16 -8t8 -24t-8 -28t-32 -12
q-8 0 -20 12t-12 28zM1984 1228q0 16 12 24t28 8t24 -8t8 -24t-8 -28t-32 -12q-8 0 -20 12t-12 28zM1928 1340q0 16 8 24t32 8q8 0 20 -8t12 -24t-12 -28t-36 -12q-8 0 -16 12t-8 28zM1824 1460q0 8 8 16t32 8q8 0 20 -8t12 -16q0 -24 -12 -36t-28 -12t-24 12t-8 36z
M1720 1548q0 8 12 20t28 12q8 0 20 -12t12 -20q0 -16 -12 -28t-28 -12q-8 0 -20 12t-12 28zM1600 1620q0 8 8 20t32 12q8 0 20 -12t12 -20q0 -24 -12 -32t-28 -8t-24 8t-8 32zM1432 1660q0 8 12 20t28 12t24 -12t8 -20q0 -16 -8 -28t-32 -12q-8 0 -20 12t-12 28zM1280 1660
q0 8 12 20t28 12q8 0 20 -12t12 -20q0 -16 -12 -28t-28 -12q-8 0 -20 12t-12 28zM1136 1628q0 16 12 24t28 8q8 0 20 -8t12 -24t-12 -28t-28 -12q-8 0 -20 12t-12 28zM984 1556q0 16 8 24t32 8q8 0 20 -8t12 -24t-12 -28t-28 -12t-24 12t-8 28z" />
    <glyph glyph-name="_This_position_shall_not_be_used_.007" unicode="&#x18aa;" 
 />
    <glyph glyph-name="_This_position_shall_not_be_used_.017" unicode="&#x18ab;" 
 />
    <glyph glyph-name="_This_position_shall_not_be_used_.016" unicode="&#x18ac;" 
 />
    <glyph glyph-name="_This_position_shall_not_be_used_.015" unicode="&#x18ad;" 
 />
    <glyph glyph-name="_This_position_shall_not_be_used_.014" unicode="&#x2048;" horiz-adv-x="1760" 
d="M648 416q-40 -104 -144 -128h-48q-72 0 -144 40q-112 72 -112 248q0 128 68 208t188 88q88 8 160 -36t104 -100q16 -32 40 -64t56 -40l312 -32q56 -8 56 -40q0 -24 -48 -40l-352 -8q-56 0 -96 72l-32 64q-64 96 -168 96q-176 0 -176 -168q0 -88 64 -144q32 -16 96 -16
t112 40l48 48q16 -8 24 -32q0 -32 -8 -56zM1360 568q0 48 28 76t68 28t68 -28t28 -76q0 -32 -28 -64t-68 -32t-68 32t-28 64zM264 1456q32 0 384 -32q344 -24 480 -40q56 -16 56 -40t-56 -40q-832 -88 -864 -80q-64 24 -64 120q0 40 20 76t44 36zM1360 1344q0 40 28 68
t68 28t68 -28t28 -68t-28 -72t-68 -32t-68 32t-28 72z" />
    <glyph glyph-name="_This_position_shall_not_be_used_.012" unicode="&#x2049;" horiz-adv-x="1704" 
d="M624 1200q-40 -104 -144 -128h-48q-72 0 -144 40q-112 72 -112 248q0 128 68 208t188 88q88 8 160 -36t104 -100q16 -32 40 -64t56 -40l312 -32q56 -8 56 -40q0 -24 -48 -40l-352 -8q-56 0 -96 72l-32 64q-64 96 -168 96q-176 0 -176 -168q0 -88 64 -144q32 -16 96 -16
t112 40l48 48q16 -8 24 -32q0 -32 -8 -56zM1336 568q0 48 28 76t68 28t68 -28t28 -76q0 -32 -28 -64t-68 -32t-68 32t-28 64zM240 672q32 0 384 -32q344 -24 480 -40q56 -16 56 -40t-56 -40q-832 -88 -864 -80q-64 24 -64 120q0 40 20 76t44 36zM1336 1344q0 40 28 68t68 28
t68 -28t28 -68t-28 -72t-68 -32t-68 32t-28 72z" />
    <glyph glyph-name=".notdef.180" unicode="&#x200c;" horiz-adv-x="2688" 
d="M592 1720v-112h-280v-272h-120v384h400zM1560 1720v-112h-384v112h384zM312 840v-384h-120v384h120zM2512 1720v-384h-120v272h-280v112h400zM312 120v-272h280v-112h-400v384h120zM1560 -152v-112h-384v112h384zM2512 840v-384h-120v384h120zM2512 120v-384h-400v112
h280v272h120zM600 408l496 -336v208q0 64 -24 88t-80 40v16l136 -16v-432h-8l-488 336v-176q0 -32 8 -56t28 -32t68 -24v0h-136v384zM1896 680v304h104v-304h-104zM632 1464h16q0 -32 8 -40t16 -24q24 0 72 -32l424 -144v0l-336 -128l336 -112v-16l-432 -160
q-48 -16 -64 -16l-16 -32t-8 -32h-16v192h16v-16q0 -16 8 -24t16 -8q16 0 64 16l296 96l-248 96l-48 -16l-40 -16q-8 -16 -24 -16q-8 0 -8 -16l-16 -16v-16h-16v192h16v0q0 -32 8 -40t16 -8q24 0 72 16l288 96l-288 96q-48 32 -72 32l-12 -8t-12 -24v-32h-16v160zM1608 -24
v144l480 320h-360q-56 0 -72 -16q-32 -16 -32 -48v-16h-16v192h16v-32q0 -32 32 -48q16 -16 72 -16h528v0l-512 -352h384q56 0 72 16q32 0 32 48v0h16v-176h-16v32q0 32 -32 48h-72h-432q-24 -32 -44 -40t-20 -24q-8 -16 -8 -32h-16zM864 536v192h64v-192h-64zM1624 1128
h-16v336h16v-48q0 -32 24 -48q8 -16 72 -16h336q72 0 120 -16t76 -64t28 -96q0 -80 -24 -104t-48 -24t-32 16t-8 32q0 32 4 48t52 32q24 0 24 32q0 16 -12 32t-60 16h-456q-48 0 -64 -16q-8 0 -32 -16v-48v-48z" />
    <glyph glyph-name=".notdef.181" unicode="&#x200d;" horiz-adv-x="2640" 
d="M560 1696v-112h-264v-272h-120v384h384zM1544 1680v-128h-384v128h384zM296 880v-384h-120v384h120zM2480 1680v-384h-120v256h-272v128h392zM296 160v-272h280v-112h-400v384h120zM1504 -112v-112h-392v112h392zM2480 864v-384h-120v384h120zM2480 160v-384h-392v112
h272v272h120zM576 448l488 -336v208q0 64 -24 88t-80 40v16l144 -16v-432h-16l-488 336v-176q0 -32 12 -56t28 -32t64 -24v0h-128v384zM600 1504h24q0 -32 4 -40t20 -24q24 0 72 -32l416 -144v0l-336 -128l336 -112v-16l-432 -160q-48 -16 -56 -16q-16 -16 -20 -32t-4 -32
h-24v192h24v-16q0 -16 4 -24t20 -8q8 0 56 16l304 96l-256 96l-48 -16l-32 -16q-16 -16 -24 -16q-16 0 -16 -16l-8 -16v-16h-24v192h24v0q0 -32 4 -40t20 -8q24 0 72 16l288 96l-288 96q-48 32 -72 32l-12 -8t-12 -24v-32h-24v160zM840 576v192h56v-192h-56zM1504 48h-16
v256h16v-32q0 -16 16 -48q16 -16 88 -16h360q80 0 128 -8t84 -48t36 -88t-24 -72t-56 -24q-16 0 -40 16q-8 16 -8 32t4 32t52 16q40 16 40 32t-20 32t-68 16h-488q-48 0 -72 -32h-32v-48v-16zM1504 896q0 32 20 48t36 16q24 0 40 -16t16 -48q0 -16 -16 -24t-40 -8
q-16 0 -36 8t-20 24zM1712 944h384q40 0 56 8t24 16t8 40h24v-224h-24q0 48 -8 56t-24 16t-56 8h-192h-104q-16 0 -20 -8t-4 -24l8 -48h-8l-64 144v16zM1712 512q0 80 88 144q72 32 152 32q64 0 136 -24t100 -64t28 -88q0 -96 -96 -144q-56 -48 -152 -48q-64 0 -128 32
t-96 64t-32 96zM1752 496q0 -16 12 -40t60 -40t104 -16q96 0 168 40t72 88q0 32 -36 64t-124 32q-136 0 -208 -48q-48 -32 -48 -80zM1808 1216q-96 64 -96 128q0 32 20 56t68 40q32 16 96 16h224h48q16 16 28 24t12 24h8v-192h-8v0q0 32 -12 48t-28 16h-48h-224
q-64 0 -88 -16t-24 -48q0 -48 64 -96h272h48q16 0 28 24t12 40h8v-208h-8v16q0 32 -20 48t-68 16h-192q-96 0 -112 -16t-24 -16t-8 -16l16 -32h-40l-48 128v16h96z" />
    <glyph glyph-name=".notdef.182" unicode="&#x200e;" 
 />
    <glyph glyph-name=".notdef.183" unicode="&#x202f;" horiz-adv-x="2616" 
d="M560 1728v-120h-280v-264h-120v384h400zM1504 1728v-120h-384v120h384zM280 912v-384h-120v384h120zM2464 1728v-384h-120v264h-272v120h392zM280 136v-264h280v-128h-400v392h120zM1480 -128v-128h-384v128h384zM2464 960v-384h-120v384h120zM2464 136v-392h-392v128
h272v264h120zM544 512v152l400 320h-304q-48 0 -56 -8q-24 -24 -24 -48v-24h-16v192h16v-24q0 -40 24 -56q8 -8 56 -8h448v-16l-432 -344h320q48 0 64 16q24 8 24 48v8h8v-184h-8v32q0 32 -24 40h-64h-360q-24 -16 -36 -28t-12 -28q-8 -16 -8 -40h-16zM544 -72v144l400 328
h-304q-48 0 -56 -16q-24 -24 -24 -48v-24h-16v192h16v-24q0 -32 24 -48q8 -8 56 -8h448v-16l-432 -344h320q48 0 64 8q24 8 24 48v16h8v-184h-8v24q0 32 -24 48h-64h-360l-36 -36t-12 -28q-8 -8 -8 -32h-16zM800 1464q8 48 32 80q32 40 80 40q40 0 76 -24t56 -72t20 -128
v-256h-16v24q0 40 -24 48q-16 16 -56 16h-336q-48 0 -64 -16q-24 -24 -24 -48v-24h-8v232q0 72 8 104q16 56 52 88t84 32q32 0 64 -24t56 -72zM776 1256v32v48q0 56 -16 80t-36 44t-44 20q-48 0 -84 -36t-36 -108q0 -56 8 -80h208zM1024 1256q16 48 16 88q0 72 -36 108
t-92 36q-24 0 -52 -16t-44 -56t-16 -80q0 -32 4 -48t4 -32h216zM1360 528h280v-24q-72 -16 -120 -44t-80 -76t-32 -112q0 -56 36 -92t84 -36q40 0 72 24q48 40 120 168q56 120 88 156t72 60t96 24q96 0 160 -72t64 -176q0 -40 -8 -64q0 -24 -20 -76t-20 -84q0 -8 8 -16
t40 -16v-8h-280v8q88 24 132 48t72 76t28 116q0 72 -40 112t-96 40q-24 0 -52 -8t-68 -48q-8 -24 -68 -124t-88 -144t-72 -68t-92 -24q-88 0 -152 68t-64 156q0 72 32 152q16 24 16 32q0 24 -8 28l-40 20v24zM1816 1032h240q72 0 96 24t24 72v24h24v-344h-24v32q0 48 -32 72
q-16 16 -88 16h-528q-72 0 -96 -16q-24 -24 -24 -72v-32h-24v296q0 112 24 176t80 108t120 44q104 0 168 -68t64 -188q0 -32 -4 -64t-20 -80zM1776 1032q16 40 16 60v52q0 56 -48 96t-120 40q-56 0 -100 -16t-68 -56t-24 -96q0 -32 8 -80h336z" />
    <glyph glyph-name="MONGGOLIAN_BIRGA" unicode="&#xe234;" horiz-adv-x="704" 
d="M672 1496q24 -72 16 -152q0 -80 -64 -224q-144 -280 -224 -432q-48 -80 -104 -160q-72 -128 -80 -168l-32 -120q-40 -56 -72 -56q-48 0 -64 96q0 64 24 120q136 240 264 464q80 120 144 296q56 112 56 192q0 40 -16 72q-32 72 -72 100t-112 28q-88 -16 -152 -96
q-72 -128 8 -248q72 -48 72 -112q0 -24 -56 -40q-112 56 -136 80q-32 24 -52 92t-12 156q16 176 136 288q88 80 232 80q240 -8 296 -256z" />
    <glyph glyph-name=".notdef.185" unicode="&#xe235;" horiz-adv-x="3336" 
d="M0 684q0 64 43.5 108t99.5 44q79 -8 109.5 -48t30.5 -104q0 -72 -38 -116t-102 -44q-56 0 -99.5 44t-43.5 116zM991 684q0 64 44 108t108 44t108 -44t44 -108q0 -72 -44 -116t-108 -44t-108 44t-44 116zM2010 684q0 64 48 108t112 44q56 0 104 -44t48 -108
q0 -72 -48 -116t-104 -44q-64 0 -112 44t-48 116zM3040 684q0 64 40 108t112 44q64 0 112 -44t48 -108q0 -72 -48 -116t-112 -44q-72 0 -112 44t-40 116z" />
    <glyph glyph-name=".notdef.186" unicode="&#xe236;" horiz-adv-x="342" 
d="M0 684l169 326l173 -326l-169 -320z" />
    <glyph glyph-name=".notdef.187" unicode="&#xe237;" horiz-adv-x="802" 
d="M0 684l169 326l173 -326l-169 -320zM456 684l169 326l173 -326l-169 -320z" />
    <glyph glyph-name=".notdef.188" unicode="&#xe238;" horiz-adv-x="264" 
d="M3 1005q0 56 36 96t100 40q48 0 88 -40t40 -96q0 -64 -40 -93t-88 -29q-64 0 -100 29t-36 93zM3 436q0 56 36 100t100 44q48 0 84.5 -38t36.5 -94t-36.5 -94t-84.5 -38q-64 0 -100 32t-36 88z" />
    <glyph glyph-name=".notdef.189" unicode="&#xe239;" horiz-adv-x="824" 
d="M416 1768l160 -280l-160 -288l-136 288zM416 824l144 -288l-144 -288l-136 288zM688 1296l144 -288l-144 -280l-144 280zM144 1296l144 -288l-144 -288l-144 288z" />
    <glyph glyph-name=".notdef.190" unicode="&#xe23a;" horiz-adv-x="632" 
d="M0 888v240h632v-240h-632z" />
    <glyph glyph-name=".notdef.191" unicode="&#xe23b;" horiz-adv-x="600" 
d="M0 1128h616v-240h-168l-48 -344q-8 -24 -32 -24q-16 0 -32 16l-48 352h-288v240z" />
    <glyph glyph-name=".notdef.192" unicode="&#xe23c;" horiz-adv-x="304" 
d="M8 1296q280 -96 296 -288q-16 -208 -296 -296l16 40q80 112 96 256q-16 144 -120 264z" />
    <glyph glyph-name=".notdef.193" unicode="&#xe23d;" horiz-adv-x="752" 
d="M464 1304q272 -88 296 -296q-24 -192 -296 -288l8 40q80 112 104 248q-24 152 -128 280zM8 1296q280 -96 296 -288q-16 -208 -296 -296l16 40q80 112 96 256q-16 144 -120 264z" />
    <glyph glyph-name=".notdef.194" unicode="&#xe23e;" horiz-adv-x="408" 
d="M0 896v224h408v-224h-408z" />
    <glyph glyph-name=".notdef.195" unicode="&#xe23f;" horiz-adv-x="1088" 
d="M672 1776q0 16 128 0q16 0 64 -8q232 -120 232 -456q-8 -224 -168 -368q-48 -40 -112 -40q-24 0 -24 32t56 64q112 128 104 312q24 256 -192 400q-104 32 -88 64zM672 1424q24 -72 16 -152q0 -80 -64 -224q-104 -208 -224 -432q-48 -80 -104 -160q-72 -128 -112 -184
v-112q-40 -56 -72 -56q-48 0 -64 96q0 72 24 128q112 232 264 464q104 160 152 288q48 120 48 200q0 48 -16 72q-72 128 -184 128q-88 -16 -152 -96q-24 -56 -32 -128q8 -96 40 -120q72 -80 72 -112q0 -24 -56 -40q-112 56 -144 136q-64 104 -56 192q16 176 136 288
q88 80 232 80q248 -32 296 -256z" />
    <glyph glyph-name=".notdef.196" unicode="&#xe240;" horiz-adv-x="1552" 
d="M1384 512q-80 -40 -176 -48q-144 8 -288 72q-88 64 -376 136l-496 88q-48 32 -48 72q0 48 96 64q64 -24 120 -32q192 -32 344 -64q216 -40 416 -120q112 -56 192 -56q120 -8 192 96q24 40 24 104q0 112 -104 160q-64 32 -140 32t-140 -72q-48 -40 -80 -40q-40 0 -40 64
q32 104 136 144q56 40 144 48q224 8 336 -152q72 -96 72 -240q-24 -160 -184 -256z" />
    <glyph glyph-name=".notdef.197" unicode="&#xe241;" horiz-adv-x="1032" 
d="M344 1136l56 112q16 48 40 88q40 104 40 176q0 40 -8 64q-32 96 -128 96q-16 8 -40 8q-80 0 -136 -72q-16 -56 -16 -120q0 -88 24 -104t32 -24q32 -48 32 -80q0 -24 -56 -32q-16 16 -32 24q-88 40 -88 48q-24 16 -44 76t-20 108q0 16 16 40q8 152 120 256q80 72 208 72
q176 -16 232 -152q16 -24 32 -80q24 -64 16 -136q0 -72 -56 -200q-32 -88 -40 -112q0 8 -64 -104q24 0 72 -40q32 -40 40 -72q16 -16 32 -64q24 -72 16 -136q0 -72 -56 -200q-32 -96 -40 -112q-48 -64 -168 -280q-72 -120 -160 -288l-32 -112q-32 -48 -64 -48q-48 0 -56 72
q0 64 20 112t172 328q56 80 160 264q16 40 40 96q40 104 40 176q0 40 -8 64q-32 96 -128 96q-16 8 -40 8q-80 0 -136 -80q-16 -56 -16 -112q0 -96 24 -104q24 -16 32 -24q32 -48 32 -80q0 -24 -56 -32q-16 8 -32 24q-88 40 -88 48q-24 8 -44 68t-20 116q0 16 16 40
q8 144 120 256q80 72 208 64zM696 1856q0 48 32 48q24 0 56 -24q152 -128 152 -328v-48q-8 -144 -48 -232q-16 -32 -104 -136q-32 -16 -64 -16q-24 0 -24 32q0 24 16 56q72 120 96 296v48q0 168 -88 232q-24 24 -24 72zM688 1144q0 48 40 48q24 0 48 -16q160 -128 160 -336
q0 -24 -8 -48q-16 -144 -40 -216q-24 -48 -112 -152q-32 -16 -56 -16t-24 40q0 16 8 56q80 120 104 288v56q0 160 -96 224q-24 40 -24 72z" />
    <glyph glyph-name=".notdef.198" unicode="&#xe242;" horiz-adv-x="1112" 
d="M416 840q48 120 16 224q-40 88 -136 80q-136 8 -160 -160q0 -64 32 -100t32 -60q0 -32 -40 -32q-72 16 -112 64q-40 72 -40 128q24 176 112 232q96 72 224 64q8 8 48 88q48 128 48 168t-16 72q-48 112 -144 96q-64 16 -128 -72q-56 -96 40 -232q0 -32 -28 -24t-44 16
q-96 96 -104 184q8 152 104 232q88 80 208 64q88 0 144 -56q104 -80 88 -248q-24 -104 -44 -156t-76 -156q88 -32 112 -144q48 -104 -16 -240q-40 -96 -88 -160q64 -40 80 -96q32 -48 24 -152q-24 -128 -128 -296q-40 -80 -68 -196l-28 -116q-32 -80 -72 -80q-48 0 -52 52
t28 156q40 120 96 232q24 40 48 72q72 112 48 192q-24 128 -144 112q-80 0 -128 -88q-16 -24 -16 -64q8 -40 28 -80t20 -64q0 -32 -40 -32q-56 0 -104 104q-16 48 -16 136q16 96 96 172t248 68q-8 -8 48 96zM664 696q-8 32 16 32t56 -16q160 -104 160 -280v-48
q-8 -176 -160 -288q-32 -16 -48 -16t-16 8q0 24 24 64q80 144 88 240q16 168 -80 248q-32 24 -40 56zM648 1888q-8 24 24 24q16 0 48 -16q160 -72 160 -264q16 -128 -80 -264q-8 -8 -80 -64q-32 -16 -48 -16t-16 8q0 24 24 64q80 144 88 232q16 184 -80 248q-32 24 -40 48z
M664 1296q-8 24 16 24q16 0 48 -16q168 -88 160 -320q8 -80 -48 -176q-40 -80 -112 -104q-32 -24 -48 -24t-16 16q0 24 32 64q80 136 80 224q16 184 -80 264q-24 24 -32 48z" />
    <glyph glyph-name=".notdef.199" unicode="&#xe243;" horiz-adv-x="279" 
d="M-9 684q0 64 48 104.5t104 40.5q60 0 91.5 -48t31.5 -97q0 -72 -38 -113t-98 -41q-56 0 -97.5 41t-41.5 113z" />
    <glyph glyph-name=".notdef.200" unicode="&#xe244;" horiz-adv-x="2672" 
d="M856 1048q40 464 752 464q104 0 232 -16q920 -56 864 -568q-24 -472 -776 -472h-208q-904 72 -864 592zM1008 1048q-40 -352 736 -424q112 -8 216 -8q584 0 600 312q24 352 -744 416q-120 8 -224 8q-552 0 -584 -304z" />
    <glyph glyph-name=".notdef.201" unicode="&#xe245;" horiz-adv-x="2912" 
d="M816 936q0 224 280 360q264 120 672 120q432 0 768 -152q376 -168 384 -400q8 -264 -320 -408q-8 -16 -16 -16q-64 0 -64 72t32 88q120 56 184 144q40 56 40 120q-24 144 -360 264q-320 112 -648 112t-552 -72q-240 -88 -240 -232q0 -136 208 -208t560 -72t528 32
q80 -16 80 -72q0 -32 -24 -80q-72 -8 -272 -32q-224 -32 -304 -32q-472 -8 -720 144q-216 136 -216 320z" />
    <glyph glyph-name=".notdef.202" unicode="&#xe246;" horiz-adv-x="2472" 
d="M864 1088q-48 120 -48 224q0 152 84 256t228 128h48q184 0 384 -128q416 -272 640 -368h8q32 0 52 36t20 92q0 48 -24 96l-200 144q16 16 16 40l376 -168q16 -24 32 -64q8 -40 0 -64q-16 -48 -56 -192q-8 -32 16 -96q24 -48 0 -48q-656 320 -944 416q-192 72 -312 72
q-96 0 -160 -40q-80 -48 -80 -144q0 -56 48 -192q56 -120 224 -256q256 -208 608 -216q248 -8 528 32q104 -24 104 -104q0 -56 -56 -104q-56 -8 -256 -16q-216 -24 -312 -8q-432 24 -728 312q-184 184 -240 360z" />
    <glyph glyph-name=".notdef.203" unicode="&#xe247;" horiz-adv-x="2456" 
d="M848 840q-32 88 -8 200q-16 32 16 88t64 64v8q-48 72 -32 216q32 112 128 184t208 72q144 0 384 -160q264 -176 600 -312h32q48 0 48 64q0 32 -16 64q-112 96 -104 96q0 16 8 32l256 -104q40 -40 32 -120q-16 -32 -16 -96v-80q40 -72 0 -80q-672 328 -1008 472
q-176 72 -224 64q-72 -16 -116 -60t-44 -108q0 -8 4 -24t20 -52t48 -60q128 -80 784 -304q32 -24 32 -48q0 -40 -48 -32q-608 256 -760 256q-40 0 -64 -24q-104 -40 -104 -120q0 -40 24 -96q32 -88 224 -168q248 -112 608 -104q88 0 272 32q120 24 248 48q112 -32 112 -112
q0 -64 -64 -96q-40 -24 -240 -52t-312 -28q-440 24 -728 208q-192 120 -264 272z" />
    <glyph glyph-name=".notdef.204" unicode="&#xe248;" horiz-adv-x="2856" 
d="M1952 608q88 -8 160 -8q256 0 432 64t192 176q16 136 -228 260t-580 132l-96 8q-72 16 -136 16q-160 0 -296 -48q-120 -8 -280 -80q-88 -32 -168 -56q-24 -16 -40 -16q-96 0 -96 72q0 64 56 96q112 88 432 160q264 56 488 56q-8 0 208 -16q464 -16 696 -224
q184 -160 160 -360q-16 -184 -196 -280t-476 -96q-104 0 -232 8q-240 32 -488 184q-192 128 -232 224q-24 56 -24 88q0 56 96 -24q48 -88 208 -192q208 -128 440 -144z" />
    <glyph glyph-name=".notdef.205" unicode="&#xe249;" horiz-adv-x="2168" 
d="M2008 832q0 32 -32 72q-80 96 -288 96q-248 16 -544 24q-96 32 -232 64q-96 24 -96 48q0 48 136 88l1120 328q112 8 112 -40q0 -32 -40 -96q-528 -136 -1024 -256l56 -40l456 -8q256 0 384 -72q136 -72 136 -200q-8 -224 -280 -312q-296 -88 -376 -88q-32 0 -52 8t-44 24
q-40 32 -40 64q0 24 56 40q48 -8 440 96q152 56 152 160z" />
    <glyph glyph-name=".notdef.206" unicode="&#xe24a;" horiz-adv-x="2864" 
d="M1944 344q-264 8 -472 80q-408 144 -568 480q-56 152 -64 192q-8 64 -24 216q24 96 96 96q48 0 64 -104q8 -168 88 -328q112 -248 472 -376q256 -88 440 -88q688 24 704 440q16 168 -112 328q-144 168 -344 168q-144 0 -288 -96q-24 -16 -48 -40q-56 -56 -72 -144
t16 -144q40 -56 176 -88q16 -8 16 -32q0 -32 -16 -48q-192 8 -760 72q-72 24 -72 80q0 48 80 64l464 -48q-40 32 -40 136q0 256 224 376q168 96 328 96q256 0 440 -184t184 -432q0 -368 -288 -544q-240 -152 -624 -128z" />
    <glyph glyph-name=".notdef.207" unicode="&#xe24b;" horiz-adv-x="2632" 
d="M1808 1000q168 -16 296 -16q360 0 368 120q0 80 -156 136t-420 56h-128q-192 -8 -240 -8q-176 -24 -296 -72q-96 -24 -200 -116t-128 -140q-40 -48 -40 -184q0 -120 40 -176q8 -32 8 -48q0 -80 -80 -80q-88 0 -104 96q-32 96 -32 208q0 224 120 380t320 220
q248 96 672 104q488 0 696 -144q128 -88 120 -232q-32 -280 -504 -280q-152 0 -344 32q-136 24 -240 24q-200 0 -272 -104q-8 -24 -8 -48q0 -96 56 -144q136 -112 536 -112q232 0 336 48q24 0 248 88q16 24 56 24q48 0 76 -24t28 -64q0 -56 -88 -120q-88 -24 -296 -88
q-160 -40 -360 -40q-432 0 -608 144q-128 80 -128 256q0 88 40 168q88 160 376 160q80 0 280 -24z" />
    <glyph glyph-name=".notdef.208" unicode="&#xe24c;" horiz-adv-x="2696" 
d="M2488 1280q208 -8 216 -24q-8 -96 -8 -160q-40 -40 -32 -344q16 -96 16 -128q0 -24 -8 -128q-32 16 -1272 384q-144 48 -568 120q-16 136 32 280l528 -240q208 -88 548 -200t572 -160q40 304 24 448q-120 64 -344 144q-64 32 -336 120q-32 24 -32 56q0 16 40 40
q8 0 280 -104t344 -104z" />
    <glyph glyph-name=".notdef.209" unicode="&#xe24d;" horiz-adv-x="2864" 
d="M2264 1056q-432 128 -800 128q-472 0 -472 -240q0 -120 264 -232q288 -112 608 -96q376 24 608 112q280 112 272 256q-24 136 -184 200q-56 24 -56 72q0 24 28 48t60 24q72 -16 160 -72q120 -96 120 -240q16 -88 -24 -184q-72 -144 -240 -216q-320 -152 -808 -176
q-504 0 -768 184q-216 144 -192 328q40 384 584 384q336 0 728 -136l16 104q24 40 64 40q56 0 88 -64l-32 -192z" />
    <glyph glyph-name=".notdef.210" unicode="&#xe24e;" horiz-adv-x="1744" 
d="M576 376q-48 -136 -184 -168h-64q-88 0 -184 48q-144 96 -144 320q0 168 88 272t240 112q120 16 212 -44t132 -132q24 -40 52 -80t76 -48l400 -48q72 -8 72 -48q0 -32 -64 -56l-456 -8q-72 0 -120 96l-40 80q-88 128 -216 128q-232 0 -232 -224q0 -112 80 -184
q48 -16 128 -16t144 48l64 64q16 -8 32 -40q0 -48 -16 -72zM1496 568q0 64 40 100t88 36t88 -36t40 -100q0 -40 -40 -80t-88 -40t-88 40t-40 80zM80 1720q48 0 496 -40q448 -32 624 -56q72 -24 72 -48q0 -32 -72 -56q-1072 -112 -1120 -104q-80 32 -80 160q0 48 24 96t56 48
zM1496 1576q0 48 40 84t88 36t88 -36t40 -84q0 -56 -40 -96t-88 -40t-88 40t-40 96z" />
    <glyph glyph-name=".notdef.211" unicode="&#xe24f;" horiz-adv-x="1768" 
d="M576 1144q-48 -136 -184 -168h-64q-88 0 -184 48q-144 96 -144 328q0 160 88 264t240 112q120 16 212 -44t132 -132q24 -40 52 -80t76 -48l400 -48q72 -8 72 -48q0 -32 -64 -48l-456 -16q-72 0 -120 96l-40 80q-88 128 -216 128q-232 0 -232 -216q0 -120 80 -192
q48 -16 128 -16t144 48l64 64q16 -8 32 -40q0 -40 -16 -72zM1496 1336q0 64 40 100t88 36t88 -36t40 -100q0 -40 -40 -80t-88 -40t-88 40t-40 80zM80 504q48 0 496 -48q448 -24 624 -48q72 -24 72 -56q0 -24 -72 -48q-1072 -112 -1120 -104q-80 32 -80 152q0 56 24 104
t56 48zM1496 352q0 56 40 92t88 36t88 -36t40 -92q0 -48 -40 -88t-88 -40t-88 40t-40 88zM80 504q48 0 496 -48q448 -24 624 -48q72 -24 72 -56q0 -24 -72 -48q-1072 -112 -1120 -104q-80 32 -80 152q0 56 24 104t56 48zM1496 352q0 56 40 92t88 36t88 -36t40 -92
q0 -48 -40 -88t-88 -40t-88 40t-40 88z" />
    <glyph glyph-name=".notdef.212" unicode="&#xe250;" horiz-adv-x="1576" 
d="M80 828q72 0 979 -93q72 -24 72 -56t-72 -48q-307 -27 -587 -59q-368 -40 -392 -40q-80 32 -80 152q0 56 24 100t56 44zM1254 684q0 56 33 85t81 29t84 -29t36 -85t-36 -85t-84 -29t-81 29t-33 85z" />
    <glyph glyph-name=".notdef.213" unicode="&#xe251;" horiz-adv-x="1825" 
d="M564 458q-36 -118 -160 -133q-140 -32 -290 54q-114 81 -114 305q0 168 97 266t245 98q114 4 202 -40t128 -116q24 -40 49 -85t95 -82l438 -25q64 -12 76 -48q-12 -59 -83 -67h-477q-90 25 -138 113q-8 24 -40 82q-88 128 -216 128q-232 0 -254 -224q-4 -107 102 -184
q151 -76 260 14q56 56 64 56q16 -8 26 -40q6 -40 -10 -72zM1482 684q3 60 38.5 92.5t75.5 32.5q56 0 92.5 -47.5t33.5 -77.5q0 -48 -35 -81t-91 -33q-43 -4 -78.5 31t-35.5 83z" />
    <glyph glyph-name=".notdef.214" unicode="&#xe252;" horiz-adv-x="1000" 
d="M706 820q112 0 208 -104q64 -64 72 -120q8 -32 -8 -32q-8 0 -24 16q-16 32 -32 48q-32 24 -56 24l-16 -16q-48 -88 -128 -88q-64 0 -108 32t-44 104q0 64 44 100t92 36zM0 684q0 56 40 96t96 40q64 0 93.5 -40t29.5 -96t-29.5 -100t-93.5 -44q-56 0 -96 44t-40 100z" />
    <glyph glyph-name=".notdef.215" unicode="&#xe253;" horiz-adv-x="565" 
d="M0 684q0 342 228 570q145 135 334 191l-5 -18q-204 -125 -306 -322q-110 -193 -123 -421q13 -228 123 -421q102 -197 306 -322l5 -18q-189 56 -334 191q-228 228 -228 570z" />
    <glyph glyph-name=".notdef.216" unicode="&#xe254;" horiz-adv-x="573" 
d="M562 684q0 -342 -228 -570q-145 -135 -334 -191l5 18q204 125 306 322q110 193 123 421q-13 228 -123 421q-102 197 -306 322l-5 18q189 -56 334 -191q228 -228 228 -570z" />
    <glyph glyph-name=".notdef.217" unicode="&#xe255;" horiz-adv-x="457" 
d="M456 1368l-366 -684l352 -684q-21 -102 -100 -34l-342 718l370 733q86 41 86 -49z" />
    <glyph glyph-name=".notdef.218" unicode="&#xe256;" horiz-adv-x="461" 
d="M0 1368q0 90 86 49l370 -733l-342 -718q-79 -68 -100 34l352 684l-366 684v0z" />
    <glyph glyph-name=".notdef.219" unicode="&#xe257;" horiz-adv-x="472" 
d="M2 1332l421 156q75 -8 35 -78l-367 -137l-2 -1179l375 -160q40 -56 -32 -72l-432 192z" />
    <glyph glyph-name=".notdef.220" unicode="&#xe258;" horiz-adv-x="471" 
d="M466 54l-432 -192q-72 16 -32 85l375 165l-2 1161l-367 137q-40 70 35 78l421 -156z" />
    <glyph glyph-name=".notdef.221" unicode="&#xe259;" horiz-adv-x="797" 
d="M456 1368l-366 -684l352 -684q-21 -102 -100 -34l-342 718l370 733q86 41 86 -49zM798 1368l-366 -684l352 -684q-21 -102 -100 -34l-342 718l370 733q86 41 86 -49z" />
    <glyph glyph-name=".notdef.222" unicode="&#xe25a;" horiz-adv-x="802" 
d="M342 1368q0 90 86 49l370 -733l-342 -718q-79 -68 -100 34l352 684zM0 1368q0 90 86 49l370 -733l-342 -718q-79 -68 -100 34l352 684z" />
    <glyph glyph-name=".notdef.223" unicode="&#xe25b;" horiz-adv-x="584" 
d="M600 1872v-232h-384v-1632h-216v1864h600zM552 1704v120h-504v-1768h120v1648h384z" />
    <glyph glyph-name=".notdef.224" unicode="&#xe25c;" horiz-adv-x="584" 
d="M0 8v224h384v1640h216v-1864h-600zM48 176v-128h504v1768h-120v-1640h-384z" />
    <glyph glyph-name=".notdef.225" unicode="&#xe25d;" horiz-adv-x="624" 
d="M624 848l-16 -32q-112 208 -280 176v-40q0 -136 -160 -160q-160 24 -168 176q8 192 272 176q264 -48 352 -296z" />
    <glyph glyph-name=".notdef.226" unicode="&#xe25e;" horiz-adv-x="1272" 
d="M622 650l-552 -552l-80 88l552 544l-552 552l80 80l552 -544l544 544l88 -80l-552 -552l552 -544l-88 -88z" />
    <glyph glyph-name=".notdef.227" unicode="&#xe25f;" horiz-adv-x="1816" 
d="M8 120l840 832l-800 800q-48 40 -8 80q32 32 88 -8l792 -800l832 832q24 16 56 -24q24 -40 -8 -72l-808 -808l816 -816q24 -88 -56 -80l-832 824l-824 -824q-96 -32 -88 64zM224 1152q176 -24 200 -200q-24 -176 -200 -192q-184 8 -192 192q8 176 192 200zM920 440
q176 -24 200 -200q-24 -176 -200 -192q-184 8 -192 192q8 176 192 200zM1600 1152q176 -24 200 -200q-24 -176 -200 -192q-184 8 -192 192q8 176 192 200zM920 1864q176 -24 200 -192q-24 -176 -200 -200q-184 8 -192 200q8 168 192 192z" />
    <glyph glyph-name=".notdef.228" unicode="&#xe260;" horiz-adv-x="1369" 
d="M0 780h1370v-96h-1370v96z" />
    <glyph glyph-name=".notdef.229" unicode="&#xe261;" horiz-adv-x="2511" 
d="M2514 684h-2514v96h2514v-96z" />
    <glyph glyph-name=".notdef.230" unicode="&#xe262;" horiz-adv-x="792" 
 />
    <glyph glyph-name=".notdef.231" unicode="&#xe263;" horiz-adv-x="472" 
 />
    <glyph glyph-name=".notdef.232" unicode="&#xe264;" horiz-adv-x="1285" 
d="M456 798h130q-4 -97 26.5 -178.5t85.5 -147.5q52 -30 82 7q-10 76 0 156q16 203 161 561q117 206 105 270l-2 160q26 82 74 41q96 -205 161 -389l-58 -96q-181 -252 -243 -454q-52 -127 -73 -333q-8 -74 -12 -247q-29 -16 -54 -4q-120 82 -209 196q-60 71 -74 230h-100
l-101 2q-9 -138 -41 -338q-32 -24 -48 0q-40 72 -38 336l8 143q13 199 -41 185q-62 0 -140 -58q-56 -40 -56 16q52 91 155 170q81 42 121 34q80 -16 75 -148l-8 -112z" />
    <glyph glyph-name=".notdef.233" unicode="&#xe265;" horiz-adv-x="1017" 
d="M904 798q99 -37 114 -118l4 -535q0 -226 -95 -312q-148 -102 -194 -160q-37 -11 -43 9l39 308q161 9 179 193l-4 325q-18 46 -71 62l-478 2q-9 -138 -41 -338q-32 -24 -48 0q-40 72 -38 336l8 143q13 199 -41 185q-62 0 -140 -58q-56 -40 -56 16q52 91 155 170
q81 42 121 34q80 -16 75 -148l-8 -112z" />
    <glyph glyph-name=".notdef.234" unicode="&#xe266;" horiz-adv-x="911" 
d="M154 1026q81 42 121 34q80 -16 75 -148l-8 -112h570v-228h-228q0 -179 -29 -326q-32 -32 -64 0q-21 147 -21 326h-215q-9 -138 -41 -338q-32 -24 -48 0q-40 72 -38 336l8 143q13 199 -41 185q-62 0 -140 -58q-56 -40 -56 16q52 91 155 170z" />
    </font>
</defs>
</svg>
